<!-- A sprite that contains all SVG files -->
<svg xmlns="http://www.w3.org/2000/svg" xmlns:xlink="http://www.w3.org/1999/xlink">
  <defs>
    <symbol id="triangle" xmlns="http://www.w3.org/2000/svg">
      <polygon strokeWidth="1px" strokeLinejoin="round" strokeMiterlimit="10"
        points="14.921,2.27 28.667,25.5 1.175,25.5" />
    </symbol>
    <symbol id="circle" xmlns="http://www.w3.org/2000/svg">
      <path d="M15,30A15,15,0,1,1,30,15,15,15,0,0,1,15,30ZM15,6.23A8.77,8.77,0,1,0,23.77,15,8.77,8.77,0,0,0,15,6.23Z" />
    </symbol>
    <symbol id="arrowUp" xmlns="http://www.w3.org/2000/svg">
      <path
        d="M28.74,20.81H1.26a1.26,1.26,0,0,1-1-2L14.16.5a1.25,1.25,0,0,1,1-.5h0a1.24,1.24,0,0,1,1,.51L29.75,18.8a1.25,1.25,0,0,1-1,2ZM3.81,18.29H26.22L15.16,3.37Z" />
      <path
        d="M28.74,42H1.26a1.28,1.28,0,0,1-1.13-.71A1.26,1.26,0,0,1,.26,40l13.9-18.29a1.28,1.28,0,0,1,1-.5h0a1.24,1.24,0,0,1,1,.51L29.75,40a1.26,1.26,0,0,1,.12,1.32A1.28,1.28,0,0,1,28.74,42ZM3.81,39.47H26.22L15.16,24.55Z" />
    </symbol>
    <symbol id="upDown" xmlns="http://www.w3.org/2000/svg">
      <path
        d="M28.74,44.58a1.28,1.28,0,0,1-1-.51L15.16,27.13l-12.89,17a1.26,1.26,0,1,1-2-1.53l13.9-18.29a1.34,1.34,0,0,1,1-.5,1.24,1.24,0,0,1,1,.51L29.75,42.56a1.27,1.27,0,0,1-1,2Z" />
      <path
        d="M14.83,20.82h0a1.28,1.28,0,0,1-1-.52L.25,2a1.27,1.27,0,0,1,2-1.51L14.84,17.45,27.73.5a1.26,1.26,0,0,1,2,1.53L15.84,20.32A1.28,1.28,0,0,1,14.83,20.82Z" />
    </symbol>
    <symbol id="box" xmlns="http://www.w3.org/2000/svg">
      <path
        d="M28,2V28H2V2H28m.13-2H1.88A1.88,1.88,0,0,0,0,1.88V28.13A1.88,1.88,0,0,0,1.88,30H28.13A1.87,1.87,0,0,0,30,28.13V1.88A1.88,1.88,0,0,0,28.13,0Z" />
    </symbol>
    <symbol id="hexa" xmlns="http://www.w3.org/2000/svg">
      <polygon strokeLinejoin="round" strokeMiterlimit="10"
        points="27.5,21.904 15,28.809  2.5,21.904 2.5,8.095 15,1.19 27.5,8.095" />
    </symbol>
    <symbol id="cross" xmlns="http://www.w3.org/2000/svg">
      <path strokeWidth="3px"
        d="M60.5,50l34.8-34.8c2.9-2.9,2.9-7.6,0-10.5c-2.9-2.9-7.6-2.9-10.5,0L50,39.5L15.2,4.7c-2.9-2.9-7.6-2.9-10.5,0    c-2.9,2.9-2.9,7.6,0,10.5L39.5,50L4.7,84.8c-2.9,2.9-2.9,7.6,0,10.5c1.4,1.4,3.3,2.2,5.2,2.2s3.8-0.7,5.2-2.2L50,60.5l34.8,34.8    c1.4,1.4,3.3,2.2,5.2,2.2c1.9,0,3.8-0.7,5.2-2.2c2.9-2.9,2.9-7.6,0-10.5L60.5,50z" />
    </symbol>

    <symbol id="tomato" xmlns="http://www.w3.org/2000/svg">
      <path
        d="M213 96.645c.182-40.778-26.801-66.287-63.132-76.109-3.863-1.074-7.744-1.448-11.561-1.448-7.224.038-14.308 1.272-21.248 2.12a27 27 0 0 0 4.134-2.232c2.64-1.744 6.071-2.309 9.068-2.3 3.556-.006 6.256.763 6.27.731a2.5 2.5 0 0 0 1.307-4.825c-.132-.034-3.328-.904-7.577-.907-3.561.009-7.939.603-11.806 3.118-3.313 2.161-6.104 2.892-8.006 3.119-.567-1.847-1.047-4.186-1.044-6.749 0-1.569.175-3.222.607-4.929a4.996 4.996 0 0 0-3.613-6.077 4.996 4.996 0 0 0-6.077 3.613 30 30 0 0 0-.918 7.393c.009 1.964.199 3.785.485 5.455-4.099-.859-9.05-2.182-11.744-3.909-2.511-1.552-5.277-2.013-7.77-2.016-5.193.023-9.509 1.94-9.676 1.995a2.5 2.5 0 0 0-1.298 3.288 2.5 2.5 0 0 0 3.288 1.301c.003-.018 3.771-1.606 7.687-1.583 1.883-.003 3.693.362 5.136 1.264 3.632 2.194 8.921 3.641 13.218 4.538-7.523-.959-15.372-2.978-23.593-3.044-2.81 0-5.674.262-8.547.964C28.32 28.46-.198 54.304.001 96.645c.03 51.759 41.563 92.2 94.371 97.7l-2.016 1.765a2.49 2.49 0 0 0-.495 3.173c.627 1.042 1.903 1.479 3.037 1.042l11.607-4.465 5.87 5.029a2.5 2.5 0 0 0 2.122.552 2.52 2.52 0 0 0 1.742-1.332l1.851-3.702 12.736 6.791a2.5 2.5 0 0 0 3.109-.619 2.5 2.5 0 0 0 .002-3.17l-5.348-6.534c47.976-9.233 84.383-47.772 84.411-96.23m-106.498 88.347c-53.681-.069-96.405-38.829-96.503-88.348.199-37.41 23.361-58.52 58.96-67.514 1.943-.475 3.987-.679 6.175-.679 8.524-.093 19.012 3.463 30.867 3.538 12.12-.047 23.076-2.957 32.306-2.902 3.169 0 6.115.312 8.884 1.083 33.682 9.638 55.629 30.503 55.811 66.474-.098 49.519-42.822 88.279-96.5 88.348" />
      <path
        d="M188.188 94.995a1 1 0 0 0-1.171.795 91 91 0 0 1-5.119 17.246 1 1 0 1 0 1.851.757 92.7 92.7 0 0 0 5.233-17.629 1 1 0 0 0-.794-1.169M176.146 126.63a1 1 0 0 0-1.376.316c-13.162 21.053-34.658 36.553-59.982 42.063a1 1 0 0 0 .426 1.954c25.857-5.628 47.805-21.446 61.252-42.954a1.004 1.004 0 0 0-.32-1.379" />
    </symbol>
    <symbol id="strawberry" xmlns="http://www.w3.org/2000/svg">
      <path
        d="M112.488 24.81c-.419-.139-2.538-.883-4.213-1.406-1.305-.466-2.847-.957-4.662-1.663-3.1-.952-6.601-1.824-10.104-2.521-.078.043-.607-.411-1.402-1.868-.832-1.206-1.69-3.501-4.765-4.024h.003a5 5 0 0 0-.486-.026c-4.215.248-11.737 5.065-12.386 5.009L73.78 2.393a2.5 2.5 0 1 0-4.995.218l.638 14.666c-2.551-.85-9.299-3.061-12.907-3.137q-.147-.002-.314.006h.009c-3.104-.236-4.382 3.541-4.361 4.076l.008.207c-.003 0 .009.104-.582.059-3.814.348-7.499.8-10.378 1.425-2.257.852-4.502.555-5.787 2.985C16.633 28.06-.426 43.934.008 78.15c0 9.809 1.261 21.153 4.027 34.355 10.58 49.507 29.835 81.016 57.59 81.752 25.59-.576 50.019-27.582 73.317-84.219 6.74-16.564 9.733-30.195 9.739-41.613.26-24.745-15.121-38.307-32.193-43.615m-60.759-1.342c3.101.093 5.133-3.037 5.023-4.264l.013-.064c2.244.09 8.846 2.173 11.197 2.927l2.01 3.351a2.495 2.495 0 0 0 4.497-2.101c.09-.008.194-.016.331-.021 3.331-.591 10.589-5.169 12.019-4.993l.003.117c.985.656 1.494 4.447 5.711 5.706 3.345.664 6.702 1.499 9.609 2.395 1.718.527 3.111 1.023 4.196 1.468a44 44 0 0 1-5.935.317c-.53 0-1.077-.006-1.633-.018-4.709-.095-7.038-.392-8.486-.403-.346.009-.645-.009-1.224.15-.463 0-2.029 1.062-1.96 2.556.858 3.222 1.448 2.188 2.456 3.766.996 1.1 2.306 2.703 3.65 5.13 1.022 1.837 1.367 3.403 1.364 4.479.003.757-.174 1.239-.291 1.437-.263-.135-.828-.626-1.603-2.352-2.985-5.901-7.079-11.85-12.877-12.324-2.775-.069-5.086 2.223-5.904 5.106-1.151 3.524-2.237 7.938-3.391 11.372-.567 1.704-1.169 3.169-1.675 4.013l-.042.067c-.698-1.094-1.076-2.877-1.063-5.014-.017-3.964 1.143-8.328 1.192-11.25-.003-.763-.15-3.606-3.173-3.892-1.223.046-1.854.495-2.533.93-1.798 1.354-6.798 3.583-11.017 5.148 3.524-2.804 7.136-5.135 7.136-5.146a2.505 2.505 0 0 0 1.065-2.758 2.505 2.505 0 0 0-2.306-1.849c-.052.057-10.553-.591-16.315-2.639.366-.077.752-.152 1.175-.217 2.412-.459 5.542-.836 8.781-1.13m73.953 82.8c-22.547 55.933-46.927 78.568-64.056 77.992-18.165.737-37.79-25.111-47.802-73.807-2.66-12.669-3.817-23.353-3.817-32.303.458-32.789 14.057-41.863 30.423-46.276.594-.144 2.278-.591 5.015-.917 1.889.393 3.773.678 5.487.888-2.464 1.859-5.243 4.156-7.286 6.429-.533.686-1.146 1.203-1.247 2.738.228 2.749 2.838 2.977 3.443 2.979 4.105-.179 12.529-3.544 17.792-6.4-.349 2.291-.898 5.541-.911 8.68.017 2.917.438 6.025 2.467 8.56.815 1.004 1.998 1.957 3.63 1.975 4.592-.832 4.879-4.479 6.425-8.012 1.244-3.723 2.335-8.156 3.403-11.406.751-1.899.961-1.592 1.151-1.661 1.08-.472 6.221 4.252 8.334 9.417 1.442 3.077 3.429 5.208 6.31 5.309 3.524-.118 5.122-3.44 5.125-6.486-.003-2.093-.625-4.441-1.989-6.903a32.6 32.6 0 0 0-2.53-3.902c1.049.051 2.244.097 3.621.125q.886.018 1.733.018a70 70 0 0 0 3.305-.076c2.71.37 5.115.905 5.64 1.078 14.716 5.199 25.074 13.654 25.333 34.122.008 9.635-2.582 22.094-8.999 37.839" />
      <path
        d="M87.498 132.942a3.911 3.911 0 1 0-.004 7.822 3.911 3.911 0 0 0 .004-7.822m0 5.822a1.91 1.91 0 1 1-.003-3.821 1.91 1.91 0 0 1 .003 3.821M51.746 128.783a3.91 3.91 0 0 0-3.909 3.909 3.91 3.91 0 1 0 7.819 0 3.91 3.91 0 0 0-3.91-3.909m0 5.821a1.914 1.914 0 0 1-1.912-1.911 1.92 1.92 0 0 1 1.912-1.912 1.912 1.912 0 0 1 0 3.823M50.666 61.983a3.077 3.077 0 1 0-6.155 0 3.077 3.077 0 0 0 6.155 0m-3.077 1.08a1.083 1.083 0 0 1-1.08-1.079 1.086 1.086 0 0 1 1.08-1.082 1.084 1.084 0 0 1 1.08 1.082 1.084 1.084 0 0 1-1.08 1.079M28.05 83.027a3.497 3.497 0 0 0 0 6.992 3.496 3.496 0 0 0 0-6.992m0 4.993a1.5 1.5 0 0 1-1.494-1.497 1.494 1.494 0 0 1 2.988 0c0 .826-.67 1.494-1.494 1.497M80.427 68.052a3.497 3.497 0 0 0 0 6.993 3.497 3.497 0 0 0 0-6.993m0 4.992a1.495 1.495 0 1 1 .003-2.99 1.495 1.495 0 0 1-.003 2.99M98.305 89.684a3.078 3.078 0 1 0 0 6.157 3.075 3.075 0 0 0 3.077-3.077 3.077 3.077 0 0 0-3.077-3.08m0 4.159a1.082 1.082 0 0 1 0-2.162 1.082 1.082 0 0 1 0 2.162M60.644 96.506a3.495 3.495 0 1 0-6.99 0 3.495 3.495 0 0 0 6.99 0m-3.495 1.497c-.824-.003-1.494-.671-1.494-1.497a1.494 1.494 0 0 1 2.988 0c0 .826-.67 1.494-1.494 1.497M61.724 158.73a3.91 3.91 0 1 0 0 7.822 3.91 3.91 0 0 0 3.909-3.912 3.91 3.91 0 0 0-3.909-3.91m0 5.822a1.91 1.91 0 0 1-1.912-1.911 1.916 1.916 0 0 1 1.912-1.912 1.916 1.916 0 0 1 1.909 1.912 1.914 1.914 0 0 1-1.909 1.911M118.775 63.837a1 1 0 0 0-.674 1.244 46.7 46.7 0 0 1 1.915 13.254 47.2 47.2 0 0 1-5.997 23.024 1.003 1.003 0 0 0 .386 1.361 1.003 1.003 0 0 0 1.362-.386 49.26 49.26 0 0 0 6.25-24c0-4.678-.668-9.339-1.998-13.824a1 1 0 0 0-1.244-.673M116.599 58.284a1 1 0 0 0 .452-1.339 47 47 0 0 0-4.957-7.937.999.999 0 1 0-1.581 1.22 45 45 0 0 1 4.747 7.6 1 1 0 0 0 1.339.456" />
    </symbol>
    <symbol id="raspberry" xmlns="http://www.w3.org/2000/svg">
      <path
        d="M143.951 68.123c.006-4.255-.89-8.97-3.167-13.763-7.548-14.965-3.825-23.408-14.639-31.949a875 875 0 0 0-10.033-6.957c-2.231-1.524-7.032-5.693-8.655-6.582-3.146-1.793-7.978-3.345-16.625-4.341a27 27 0 0 0-3.018-.17c-13.312.298-24.102 8.868-29.525 14.024C55.909 10.652 49.67.131 33.268 0a2.5 2.5 0 1 0 0 5c12.028-.119 17.285 6.815 19.607 12.847-2.6-.434-5.904-.688-10.269-.698-2.775 0-5.974.109-9.679.363C8.746 19.085 5.412 39.035 5.254 44.274 3.685 47.308.053 55.261 0 65.101c-.003 4.975.999 10.477 3.869 15.775 2.902 5.369 4.644 8.481 5.723 10.324l.211.356a36.2 36.2 0 0 0-.835 7.732c-.006 5.041 1.076 11.523 5.066 17.868 7.384 11.032 21.372 15.07 27.918 16.528 1.676 6.109 7.183 17.569 24.128 21.671 2.6.636 5.118.93 7.52.93 14-.264 22.595-9.254 26.526-14.57a29.3 29.3 0 0 0 9.139 1.55c8.152.23 18.775-4.646 24.597-18.793 4.588-10.675 6.048-19.253 6.048-25.771.007-5.243-.947-9.11-1.867-11.614 2.33-3.492 5.842-10.154 5.908-18.964M33.607 27.486c3.509-.239 6.485-.337 8.999-.337 7.104-.017 10.493.847 11.547 1.302l.073-.013a5 5 0 0 0 2.782 1.9 5.01 5.01 0 0 0 5.035-1.563c.003-.012 3.149-3.636 8.144-7.33 4.989-3.742 11.622-7.145 17.627-7.084q.95 0 1.886.104c4.378.488 7.455 1.155 9.533 1.777 1.648.494 4.504 2.905 5.224 3.393l.009.006.017.012c.015.007 5.213 3.492 11.43 7.807 1.422 5.039 1.571 13.391 1.358 20.022a116 116 0 0 1-.088 4.532c-1.471-1.549-3.443-3.565-6.165-6.3-7.635-7.393-22.739-12.808-22.878-12.908a2.52 2.52 0 0 0-2.121.181 2.51 2.51 0 0 0-1.212 1.751c-.009.063-.832 4.948-1.039 10.672a74 74 0 0 0-.044 2.501c-.007 10.678 2.514 17.769 4.448 21.636-.572.037-1.188.064-1.865.064-3.446.003-7.88-.665-11.654-3.192-7.366-4.718-17.105-24.035-17.146-24.026a2.494 2.494 0 0 0-2.77-1.336 2.496 2.496 0 0 0-1.969 2.364c.011.017-.279 8.273-3.783 16.055-2.311 5.537-12.814 13.44-17.178 16.574-1.503-2.296-4.033-7.012-6.12-15.17-.742-2.91-1.045-5.429-1.045-7.611.034-6.865 2.858-10.521 5.354-12.966l.006-.006c.207-.331.763-.429.933-2.05-.409-2.603-2.654-2.603-2.734-2.605-2.077.137-7.507 2.104-12.014 3.846 1.402-4.888 5.336-11.124 17.42-12.002M26.532 36.7l-.001-.002.006-.003zm104.631 42.371c-1.41 2.744-2.694 4.07-2.646 4.12a4.994 4.994 0 0 0-.4 6.1s.217.228.721 1.762c.5 1.537 1.07 4.045 1.07 7.649-.003 5.023-1.108 12.212-5.236 21.824-5.078 11.215-10.514 12.508-15.407 12.738-4.679.049-8.418-2.251-8.51-2.104a4.98 4.98 0 0 0-3.854-.472 4.97 4.97 0 0 0-3.029 2.427c.004.011-1.764 3.267-5.343 6.652-3.618 3.423-8.587 6.523-14.929 6.518-1.592 0-3.297-.192-5.145-.642-8.87-2.226-12.762-6.42-14.95-10.033a17.8 17.8 0 0 1-1.942-4.724c-.297-1.203-.254-1.641-.303-1.638a4.994 4.994 0 0 0-4.221-4.689c-.011.003-4.669-.731-10.242-2.824-5.611-2.053-11.688-5.591-14.296-9.897-2.772-4.413-3.526-8.876-3.532-12.549-.006-2.74.437-4.824.738-6.005.031-.066.078-.137.1-.201.569-1.21.518-1.846.544-2.283-.216-2.307-.4-1.745-.433-2.131a5 5 0 0 0-1.328-1.901c-.844-1.409-2.661-4.599-5.926-10.647-1.946-3.609-2.66-7.35-2.663-11.02-.066-9.082 4.704-16.953 4.565-17.054l.694-2.793v-.039a401 401 0 0 1 4.056-1.556 91 91 0 0 1 2.761-1.033c-1.424 2.782-2.453 6.29-2.435 10.643 0 2.644.365 5.582 1.203 8.85 3.382 13.251 8.322 18.799 8.576 19.069a2.496 2.496 0 0 0 3.215.402c.13-.213 16.387-10.443 20.912-20.067 1.578-3.543 2.56-7.079 3.177-10.072 3.58 6.249 9.306 15.104 15.152 19.129 4.951 3.29 10.381 4.027 14.429 4.033 3.788-.003 6.428-.656 6.563-.688a2.49 2.49 0 0 0 1.771-1.644 2.5 2.5 0 0 0-.446-2.375c-.003-.003-1.218-1.425-2.62-5.006-1.402-3.587-2.85-9.16-2.85-16.988q-.001-1.13.04-2.323c.094-2.64.333-5.107.551-6.936 4.662 1.964 13.741 6.176 18.199 10.63 4.87 4.781 7.323 7.487 8.504 8.921.587.714.857 1.111.936 1.241l.006-.004A2.49 2.49 0 0 0 119.306 61a2.496 2.496 0 0 0 2.447-2.24c.006-.058.519-4.957.519-11.276-.148-4.733.17-10.562-.415-15.826 3.467 3.387 2.632 10.776 9.892 26.981 1.626 3.452 2.199 6.593 2.202 9.485.008 4.353-1.365 8.195-2.788 10.947" />
      <path
        d="M120.235 94.83c.087.544.596.918 1.144.835.544-.087.918-.599.834-1.144a33 33 0 0 0-1.082-4.681 1 1 0 1 0-1.911.588 31 31 0 0 1 1.015 4.402M121.6 100.962a.994.994 0 0 0-1.067.927c-.665 9.345-5.473 18.295-13.858 23.92a1 1 0 1 0 1.115 1.661c8.912-5.982 14.034-15.508 14.736-25.439a1 1 0 0 0-.926-1.069" />
    </symbol>
    <symbol id="pepper" xmlns="http://www.w3.org/2000/svg">
      <path
        d="M163.973 18.681c-4.444-.878-8.476-1.284-12.143-1.284-14.058-.151-22.821 6.465-26.973 13.405-4.488-6.633-13.311-12.887-27.143-12.758l-.144.001c.825-11.889 6.789-12.679 11.779-13.044 2.761-.006 4.813.659 4.83.621A2.5 2.5 0 1 0 115.63.838c-.149-.04-2.752-.832-6.281-.838-3.282.003-7.522.699-11.034 3.745-3.288 2.845-5.535 7.574-5.805 14.548-15.089 1.375-23.545 8.635-28.176 15.361-4.221-7.402-12.071-15.559-26.305-15.875-3.766 0-7.856.622-12.28 1.961C6.028 26.209.095 49.337 0 75.283c.02 27.597 7.11 60.271 17.67 86.508 10.882 25.906 23.762 46.723 42.021 47.652 3.667.012 7.364-1.091 10.7-3.181l.688-.513c2.03-1.937 3.604-4.203 4.831-6.498 2.687 4.199 6.788 8.49 13.532 8.706 8.45.196 14.653-3.132 17.59-8.037.4-.65.748-1.3 1.068-1.946 3.205 4.857 7.905 9.336 15.221 10.813l-.001.005c.023.005.048.006.071.011q.047.012.096.021l.001-.006c1.252.247 2.517.377 3.773.377 18.839-.947 32.573-22.76 44.244-49.748 11.328-27.312 19.055-61.077 19.08-88.823-.006-25.081-6.279-47.447-26.612-51.943m-1.702 136.929c-10.517 26.384-25.944 44.532-35.009 43.585a9.3 9.3 0 0 1-1.912-.196l-.167-.031c-6.422-.809-10.582-8.737-13.161-15.666a5.01 5.01 0 0 0-4.649-3.188 5.01 5.01 0 0 0-4.664 3.167c-1.865 4.942-2.665 9.181-4.104 11.256-1.402 1.889-2.479 3.225-9.161 3.42-1.543.265-4.314-2.147-6.339-6.212-1.983-3.823-2.896-7.796-2.945-7.793a5.006 5.006 0 0 0-5.061-3.835 5.004 5.004 0 0 0-4.741 4.224c0 .006-.403 2.573-1.451 5.766-.94 3.021-2.612 6.363-4.199 7.9-1.803 1.03-3.39 1.429-5.016 1.436-8.513.934-22.979-16.092-32.749-41.391-10.093-24.974-16.965-56.879-16.942-82.769-.096-25.06 6.667-42.845 18.648-45.972 3.613-1.094 6.717-1.531 9.382-1.531 16.888-.581 20.98 19.648 21.032 19.662a4.995 4.995 0 0 0 5.001 4.085 5 5 0 0 0 4.859-4.252c0-.003.112-.869.76-2.643 2.226-5.372 7.419-16.072 27.384-16.585l-.057-3.486h.001l.058 3.486q.32-.004.646-.003c11.776.139 16.495 4.716 19.475 9.339 1.428 2.344 2.231 4.782 2.648 6.599.421 1.816.403 2.755.446 2.758.007.162.046.314.067.473.023.166.031.336.072.499a5 5 0 0 0 5.068 3.813 5 5 0 0 0 4.727-4.224c.041-.261.047-.526.047-.791h.014c.458-.495-.625-19.095 21.551-19.112 2.928 0 6.313.325 10.202 1.094 11.927 1.874 18.565 17.791 18.554 42.134.026 25.905-7.456 58.926-18.315 84.984" />
      <path
        d="M163.296 117.602a1 1 0 0 0-1.085.907c-2.107 23.234-11.541 41.123-28.284 62.228a1 1 0 0 0 1.566 1.244c16.852-21.22 26.574-39.584 28.71-63.294a1 1 0 0 0-.907-1.085M166.642 83.638c-.547.075-.93.579-.858 1.126.395 2.916.567 5.436.567 7.695 0 4.143-.578 7.406-1.482 10.686a.999.999 0 1 0 1.928.532c.938-3.396 1.555-6.889 1.555-11.218 0-2.364-.182-4.975-.585-7.963a1 1 0 0 0-1.125-.858" />
    </symbol>
    <symbol id="peas" xmlns="http://www.w3.org/2000/svg">
      <path
        d="M163.973 18.681c-4.444-.878-8.476-1.284-12.143-1.284-14.058-.151-22.821 6.465-26.973 13.405-4.488-6.633-13.311-12.887-27.143-12.758l-.144.001c.825-11.889 6.789-12.679 11.779-13.044 2.761-.006 4.813.659 4.83.621A2.5 2.5 0 1 0 115.63.838c-.149-.04-2.752-.832-6.281-.838-3.282.003-7.522.699-11.034 3.745-3.288 2.845-5.535 7.574-5.805 14.548-15.089 1.375-23.545 8.635-28.176 15.361-4.221-7.402-12.071-15.559-26.305-15.875-3.766 0-7.856.622-12.28 1.961C6.028 26.209.095 49.337 0 75.283c.02 27.597 7.11 60.271 17.67 86.508 10.882 25.906 23.762 46.723 42.021 47.652 3.667.012 7.364-1.091 10.7-3.181l.688-.513c2.03-1.937 3.604-4.203 4.831-6.498 2.687 4.199 6.788 8.49 13.532 8.706 8.45.196 14.653-3.132 17.59-8.037.4-.65.748-1.3 1.068-1.946 3.205 4.857 7.905 9.336 15.221 10.813l-.001.005c.023.005.048.006.071.011q.047.012.096.021l.001-.006c1.252.247 2.517.377 3.773.377 18.839-.947 32.573-22.76 44.244-49.748 11.328-27.312 19.055-61.077 19.08-88.823-.006-25.081-6.279-47.447-26.612-51.943m-1.702 136.929c-10.517 26.384-25.944 44.532-35.009 43.585a9.3 9.3 0 0 1-1.912-.196l-.167-.031c-6.422-.809-10.582-8.737-13.161-15.666a5.01 5.01 0 0 0-4.649-3.188 5.01 5.01 0 0 0-4.664 3.167c-1.865 4.942-2.665 9.181-4.104 11.256-1.402 1.889-2.479 3.225-9.161 3.42-1.543.265-4.314-2.147-6.339-6.212-1.983-3.823-2.896-7.796-2.945-7.793a5.006 5.006 0 0 0-5.061-3.835 5.004 5.004 0 0 0-4.741 4.224c0 .006-.403 2.573-1.451 5.766-.94 3.021-2.612 6.363-4.199 7.9-1.803 1.03-3.39 1.429-5.016 1.436-8.513.934-22.979-16.092-32.749-41.391-10.093-24.974-16.965-56.879-16.942-82.769-.096-25.06 6.667-42.845 18.648-45.972 3.613-1.094 6.717-1.531 9.382-1.531 16.888-.581 20.98 19.648 21.032 19.662a4.995 4.995 0 0 0 5.001 4.085 5 5 0 0 0 4.859-4.252c0-.003.112-.869.76-2.643 2.226-5.372 7.419-16.072 27.384-16.585l-.057-3.486h.001l.058 3.486q.32-.004.646-.003c11.776.139 16.495 4.716 19.475 9.339 1.428 2.344 2.231 4.782 2.648 6.599.421 1.816.403 2.755.446 2.758.007.162.046.314.067.473.023.166.031.336.072.499a5 5 0 0 0 5.068 3.813 5 5 0 0 0 4.727-4.224c.041-.261.047-.526.047-.791h.014c.458-.495-.625-19.095 21.551-19.112 2.928 0 6.313.325 10.202 1.094 11.927 1.874 18.565 17.791 18.554 42.134.026 25.905-7.456 58.926-18.315 84.984" />
      <path
        d="M163.296 117.602a1 1 0 0 0-1.085.907c-2.107 23.234-11.541 41.123-28.284 62.228a1 1 0 0 0 1.566 1.244c16.852-21.22 26.574-39.584 28.71-63.294a1 1 0 0 0-.907-1.085M166.642 83.638c-.547.075-.93.579-.858 1.126.395 2.916.567 5.436.567 7.695 0 4.143-.578 7.406-1.482 10.686a.999.999 0 1 0 1.928.532c.938-3.396 1.555-6.889 1.555-11.218 0-2.364-.182-4.975-.585-7.963a1 1 0 0 0-1.125-.858" />
    </symbol>
    <symbol id="orange" xmlns="http://www.w3.org/2000/svg">
      <path
        d="M129.177 42.183c-3.209-.711-6.131-1.025-8.786-1.025-4.361-.02-7.992.882-10.896 2.102 2.178-7.316 4.459-17.688 4.692-29.582a5 5 0 0 0-4.908-5.093 5 5 0 0 0-5.089 4.908c-.213 12.413-3.008 23.077-5.198 29.676a21.8 21.8 0 0 0-4.328-2.166 1234 1234 0 0 1-4.431-9.108C82.866 16.405 83.83 5.015 60.875.063a2.5 2.5 0 0 0-2.059.44 2.52 2.52 0 0 0-.993 1.857 95 95 0 0 0-.155 5.322c-.305 19.645 7.7 30.031 21.121 32.889C33.332 49.678.012 91.101 0 139.203c.009 50.862 37.499 92.95 86.353 100.018a11.5 11.5 0 0 0 1.678.118q.592-.042 1.159-.116a2.5 2.5 0 0 0 1.369 1.976 2.5 2.5 0 0 0 3.112-.742l2.367-3.162q.424-.178.814-.351l1.753 3.953a2.49 2.49 0 0 0 2.36 1.482 2.49 2.49 0 0 0 2.266-1.621l1.497-4.001 4.655 4.082a2.5 2.5 0 0 0 2.95.253 2.49 2.49 0 0 0 1.179-2.41c.821.117 1.675.2 2.561.237.855 0 1.745-.069 2.651-.23 47.235-8.443 83.044-49.774 83.056-99.485-.017-45.682-29.522-87.43-72.603-97.021m-66.509-34.5c0-.644.014-1.31.03-1.979 17.605 4.942 14.901 11.762 23.032 28.363l1.569 3.241c-1.572-.523-3.351-.955-5.372-1.254-12.749-2.35-18.936-8.658-19.259-28.371m54.297 221.16a5 5 0 0 1-.893.075c-2.827.291-7.986-3-15.183-3.273-7.007.467-11.392 4.188-12.86 3.696q-.145 0-.247-.018C43.82 222.967 9.988 185.039 10 139.203c-.011-43.731 30.557-81.227 71.49-88.986 1.897-.359 3.53-.507 4.934-.507 4.831.061 6.961 1.506 8.688 2.994.351.32.665.647.968.98.372 1.376 1.305 2.59 2.697 3.237.091.042.186.06.278.097.681.491 1.762.964 3.677 1.282 5.939-1.157 5.32-3.152 8.012-4.407 2.133-1.382 4.825-2.704 9.647-2.735 1.865 0 4.056.219 6.63.789 37.784 8.251 64.775 45.764 64.758 87.256.012 44.8-32.305 82.043-74.814 89.64" />
      <path
        d="M179.369 137.136a1 1 0 0 0-1.025.977 83.5 83.5 0 0 1-2.029 16.478 1.001 1.001 0 0 0 1.952.44 86 86 0 0 0 2.079-16.872 1 1 0 0 0-.977-1.023M173.263 167.795a1 1 0 0 0-1.307.544c-8.755 21.165-25.93 38.551-48.099 47.423a.995.995 0 0 0-.555 1.298 1 1 0 0 0 1.298.559c22.676-9.076 40.243-26.853 49.205-48.516a1.006 1.006 0 0 0-.542-1.308" />
    </symbol>
    <symbol id="onion" xmlns="http://www.w3.org/2000/svg">
      <path
        d="M175.995 131.004c-8.006-13.306-18.545-20.791-26.81-25.69-4.125-2.447-7.721-4.307-10.013-5.792-1.143-.731-1.938-1.37-2.28-1.739l-.127.043-.121-.553c-4.341-15.551-10.436-34.586-10.445-34.615a4.99 4.99 0 0 0-4.726-3.47c-.817-8.975-1.937-17.705-1.93-25.274 0-3.169.193-6.126.662-8.792.204-1.168-.443-2.323-1.546-2.758s-2.363-.032-3.011.959c-2.514 3.953-8.398 13.919-13.051 24.889.117-2.894.188-5.893.189-8.929-.063-14.356-1.396-29.381-7.548-38.23A2.49 2.49 0 0 0 93.091.002a2.49 2.49 0 0 0-2.047 1.235c-5.173 8.91-6.598 21.268-6.624 33.368.001 4.987.261 9.931.649 14.556-4.574-12.016-11.231-23.834-17.758-26.817a2.49 2.49 0 0 0-2.383.357 2.49 2.49 0 0 0-.976 2.205c.979 11.138 1.409 23.063 2.267 34.406a4.98 4.98 0 0 0-3.692 3.346c-.009.032-6.1 19.066-10.424 34.618l-.121.553-.129-.041c-2.862 3.88-25.195 10.214-38.956 33.224C4.284 145.353 0 161.54 0 177.724c-.002 23.552 9.083 47.164 27.107 65.113 17.73 17.667 40.959 26.922 64.298 26.919h5.809c23.416.003 46.723-9.247 64.52-26.914 18.085-17.947 27.21-41.561 27.205-65.119-.001-16.186-4.302-32.376-12.944-46.719m-59.257-68.481c-.033.092-.076.179-.104.274l-7.765 26.926-7.347-21.485c1.608-10.233 8.02-23.917 13.046-33.202.115 8.613 1.403 18.093 2.17 27.487M93.353 7.943c3.261 7.621 4.487 19.714 4.435 31.341.001 7.05-.39 13.929-.861 19.666a5.03 5.03 0 0 0-2.584-.6 5.03 5.03 0 0 0-3.143.906c-.932-6.987-1.78-15.781-1.778-24.65-.02-9.678 1.06-19.388 3.931-26.663m-7.456 63.866L79.8 89.671l-7.704-26.868a5 5 0 0 0-.7-1.473c-.822-10.028-1.259-20.754-2.009-31.143 6.906 8.624 16.481 32.363 16.51 41.622m68.792 163.938c-15.935 15.81-36.685 24.006-57.476 24.009h-5.809c-20.702-.003-41.371-8.193-57.242-24.003C18.075 219.724 10.006 198.726 10 177.725c0-14.425 3.814-28.819 11.469-41.563 6.854-11.392 15.632-17.693 23.261-22.256 7.229-4.948 14.155-5.822 16.936-13.968l.069.02c1.667-5.995 3.612-12.55 5.361-18.31l7.484 26.098a4.99 4.99 0 0 0 4.684 3.619 4.99 4.99 0 0 0 4.854-3.383l10.204-29.896 10.224 29.899a4.99 4.99 0 0 0 4.854 3.38 4.99 4.99 0 0 0 4.681-3.613l7.541-26.153c1.756 5.772 3.712 12.351 5.391 18.363l.07-.02c2.794 8.153 9.734 9.014 16.995 13.971 7.657 4.563 16.472 10.867 23.353 22.258 7.678 12.742 11.506 27.133 11.506 41.555-.005 20.993-8.101 41.988-24.248 58.021" />
      <path
        d="M166.498 177.592a1 1 0 0 0-1.169.797 87 87 0 0 1-4.845 16.447 1 1 0 0 0 .55 1.301 1 1 0 0 0 1.304-.55c2.18-5.372 3.849-11 4.958-16.827a1 1 0 0 0-.798-1.168M155.115 207.779a1 1 0 0 0-1.376.323c-12.454 20.074-32.792 34.85-56.752 40.101a1 1 0 1 0 .429 1.955c24.496-5.372 45.289-20.474 58.022-41.003a1 1 0 0 0-.323-1.376" />
    </symbol>
    <symbol id="lettuce" xmlns="http://www.w3.org/2000/svg">
      <path
        d="M213.082 19.504c-1.18-1.459-3.297-3.063-6.014-3.057-6.08.763-7.246 4.442-9.848 7.833-1.24 1.941-2.588 4.221-4.098 6.735C173.98 11.865 147.473 0 118.229 0 88.176 0 61.016 12.532 41.768 32.622c-4.035-4.349-8.738-7.2-14.217-7.697-4.926-.075-9.379 3.215-11.916 7.891C5.686 50.217 0 70.383 0 91.836c.004 58.263 41.85 106.747 97.174 117.206.365.074.732.14 1.098.209l.264.047a106.3 106.3 0 0 0 19.693 1.841c.182 0 .361-.009.543-.01.264.001.525.01.791.01 66.021 0 119.553-53.401 119.559-119.303.066-28.931-8.661-51.778-26.04-72.332m-25.736 19.892c.109.113.234.198.352.299-6.834 10.342-16.527 22.417-31.717 31.955-11.117 6.976-26.291 18.144-39.307 28.065a41 41 0 0 0 .072-2.314c-.051-13.62-6.088-30.083-8.023-47.491a32 32 0 0 1-.201-3.562c-.367-19.22 19.256-30.847 29.695-34.263 19.099 4.043 36.082 13.759 49.129 27.311m-69.117-29.395c3.609 0 7.17.206 10.674.593-11.57 5.815-25.086 17.35-25.381 35.754 0 1.345.074 2.718.236 4.123 2.072 18.093 8.043 34.767 7.99 46.93-.002 2.424-.236 4.635-.734 6.654a1531 1531 0 0 0-17.943 14.046 165 165 0 0 0-6.199-7.453C66.027 87.256 62.328 82.472 55.996 60.36c-2.201-6.989-4.922-13.765-8.258-19.495 17.522-18.979 42.59-30.861 70.491-30.864M10 91.836c.004-19.683 5.205-38.112 14.316-54.058 1.734-2.799 2.514-2.781 3.234-2.856 1.227-.256 5.414 2.11 9.18 7.482 3.82 5.222 7.422 12.724 9.635 20.655 6.336 23.059 12.361 31.367 33.064 54.268 18.654 20.475 33.021 51.159 32.736 64.2 0 .964-.072 1.799-.193 2.476-1.246 7.053-2.117 11.182-2.662 13.479-.535 2.289-.664 2.352-.609 2.378l-.01.02-.002.009c-.09.225-.139.454-.193.682a110 110 0 0 1-10.557-1.595c-3.102-.667-10.016-2.623-10.453-2.643C42.654 182.614 10.09 141.058 10 91.836m124.727 107.89a97 97 0 0 1-15.916 1.405l-.098-.001c.592-2.308 1.568-6.723 3.109-15.384.238-1.364.342-2.769.342-4.217-.223-14.289-9.537-35.884-23.139-55.387 10.031-7.983 43.102-34.021 62.264-46.019 17.705-11.092 28.639-25.391 35.896-36.664 3.625-5.631 6.361-10.542 8.443-13.77.467-.733.904-1.371 1.291-1.902 15.008 18.602 22.135 37.914 22.199 64.05-.086 48.09-31.172 88.866-74.41 103.51-1.784.603-16.044 3.699-19.981 4.379" />
      <path
        d="M199.344 141.89a1 1 0 0 0-1.379.314c-13.936 22.195-36.701 38.538-63.518 44.348a.997.997 0 0 0-.766 1.189c.115.538.648.881 1.189.766 27.35-5.927 50.566-22.587 64.787-45.237a1 1 0 0 0-.313-1.38M212.105 108.562a.996.996 0 0 0-1.168.792 95.3 95.3 0 0 1-5.424 18.185 1.001 1.001 0 0 0 1.852.76 97.5 97.5 0 0 0 5.535-18.568 1 1 0 0 0-.795-1.169" />
    </symbol>
    <symbol id="lemon" xmlns="http://www.w3.org/2000/svg">
      <path
        d="M112.325 9.88a35 35 0 0 1-.443-.726c-1.333-2.66-6.25-9.538-15.879-9.138-6.599-.224-11.229 3.633-13.123 6.478-2.171 3.083-2.605 3.388-2.715 3.308C35.625 17.856.435 74.67 0 117.8c.1 44.365 32.392 89.33 78.303 96.097 1.093 2.27 5.279 11.255 16.323 10.815q.298.001.604-.006c6.705.041 11.374-3.043 13.539-5.755 2.38-2.826 2.458-3.057 3.209-3.172 43.294-8.767 77.123-55.086 77.373-97.979-.291-43.868-30.35-101.003-77.026-107.92m-2.26 196.086c-5.395 1.085-7.598 5.141-8.792 6.367-1.417 1.345-1.624 2.079-6.267 2.375-.129.003-.253.006-.38.006-4.514-.241-4.629-1.103-5.957-2.772-1.434-1.289-1.114-5.904-7.937-7.796C40.296 199.174 9.902 157.859 10 117.8c-.434-38.121 34.699-92.663 71.798-98.133 5.81-1.122 7.732-5.604 9.057-7.139 1.601-1.771 1.549-2.289 5.147-2.511 4.563.21 4.842 1.094 6.198 2.608 1.327 1.172 1.906 5.656 8.21 7.073 38.973 4.134 69.235 58.002 68.941 98.101.251 37.756-31.853 81.191-69.286 88.167" />
      <path
        d="M159.6 152.132a1 1 0 0 0-1.356.4c-10.441 19.256-28.529 34.076-50.526 40.309a.998.998 0 1 0 .545 1.922c22.523-6.382 41.043-21.55 51.74-41.275a1.003 1.003 0 0 0-.403-1.356M168.449 123.565a.997.997 0 0 0-1.117.864 80.2 80.2 0 0 1-3.57 15.468 1 1 0 0 0 1.894.639 82 82 0 0 0 3.659-15.854 1 1 0 0 0-.866-1.117" />
    </symbol>
    <symbol id="kiwi" xmlns="http://www.w3.org/2000/svg">
      <path
        d="M86.153 0C38.38.035.086 40.542 0 90.149c.086 49.604 38.38 90.112 86.153 90.146 47.773-.034 86.067-40.542 86.153-90.146C172.221 40.542 133.927.035 86.153 0m0 170.295c-41.869-.08-76.136-35.702-76.152-80.146.017-44.445 34.283-80.067 76.152-80.148 41.869.081 76.136 35.703 76.152 80.148-.016 44.444-34.283 80.066-76.152 80.146" />
      <path
        d="M55.797 87.492q.18.005.356.006c3.763.043 5.657-1.644 6.025-2.196a2.51 2.51 0 0 0 .089-2.939c-.184-.247-2.239-3.271-6.661-3.575h.003a14 14 0 0 0-.863-.025 18.8 18.8 0 0 0-5.952 1.026c-.042.012-.082.031-.125.045l-.133.048-.014.008a2.5 2.5 0 0 0-.979.681 2.5 2.5 0 0 0-.365.587l-.008.017a2.5 2.5 0 0 0-.188.6l-.001.003v.002c-.07.41-.037.829.096 1.225l.031.081q.09.236.227.454.03.05.063.1c.108.153.231.299.377.429q.01.012.019.021.002.001.005.003l.005.006.005.006c.031.027.068.046.102.071.624.496 3.64 3.112 7.886 3.316M56.202 69.097l.007.017.002.013.003.012c.006.022.02.04.027.062.199.621 1.004 3.827 3.902 6.05 1.73 1.258 3.299 1.661 4.396 1.652.6 0 1.039-.109 1.27-.19a2.5 2.5 0 0 0 1.682-2.383c-.018-.303-.023-3.4-2.988-5.764A14.7 14.7 0 0 0 59.44 66.1c-.069-.024-.142-.037-.213-.055l-.057-.016-.001.002a2.46 2.46 0 0 0-1.22.019 2.495 2.495 0 0 0-1.743 3.047zM103.285 72.197c.348-.014 3.411-.009 5.783-2.916a14.8 14.8 0 0 0 2.535-5.055c.021-.062.034-.125.051-.188l.017-.061q.001-.014.003-.025a2.5 2.5 0 0 0-.012-1.213 2.5 2.5 0 0 0-.267-.604l-.008-.013a2.4 2.4 0 0 0-.38-.489l-.008-.01-.006-.004a2.4 2.4 0 0 0-.501-.394 2.4 2.4 0 0 0-.565-.228q-.036-.01-.072-.017a2.5 2.5 0 0 0-.505-.073q-.065-.004-.13-.004-.264.001-.523.059c-.02.005-.039.002-.058.007l-.015.006q-.016.002-.031.005l-.009.003c-.035.01-.065.027-.1.038-.727.214-3.84 1.007-6.041 3.813-1.307 1.751-1.716 3.346-1.707 4.442-.003.564.098.979.173 1.203a2.5 2.5 0 0 0 2.376 1.718M93.348 65.352c.273-.146 3.549-1.768 4.465-6.105a16.7 16.7 0 0 0 .305-3.244 19 19 0 0 0-.348-3.661c-.007-.051-.021-.1-.031-.15l-.023-.104-.002-.006a2.5 2.5 0 0 0-.554-1.088 2.5 2.5 0 0 0-.512-.428l-.028-.018a2.5 2.5 0 0 0-.544-.258q-.011-.005-.021-.011-.008-.001-.014-.003a2.5 2.5 0 0 0-1.212-.073q-.05.012-.103.024-.239.055-.466.158c-.038.017-.075.031-.111.05a2.5 2.5 0 0 0-.489.323l-.01.007-.002.002-.018.013-.006.009c-.021.019-.037.042-.057.062-.541.516-3.599 3.157-4.397 7.371a13 13 0 0 0-.182 2.082c-.022 2.66 1.061 4.177 1.457 4.551a2.5 2.5 0 0 0 2.903.497M102.781 79.573a2.51 2.51 0 0 0 1.635 2.421c.185.063 1.377.492 3.164.495a10.3 10.3 0 0 0 5.436-1.534c3.301-2.058 5.324-4.806 5.868-5.581.033-.041.06-.087.09-.129q.042-.061.056-.079l-.003-.002c.228-.346.381-.739.417-1.155a2.53 2.53 0 0 0-.578-1.825 2.52 2.52 0 0 0-1.655-.874v-.005c-.069-.006-.671-.068-1.598-.068-1.935.025-5.306.195-8.329 2.153-3.919 2.533-4.537 5.48-4.503 6.183M119.029 89.396l-.009-.009q-.016-.009-.029-.017c-.238-.12-2.385-1.942-5.659-2.03q-.171 0-.349.009h.006c-2.882.095-4.442 1.54-4.778 2.142-.6.907-.547 2.087.129 2.937.202.233 1.849 2.309 5.142 2.357h.118a12.9 12.9 0 0 0 4.697-1.036c.039-.013.074-.033.112-.048l.168-.073-.001-.002c.354-.17.673-.411.914-.726a2.52 2.52 0 0 0 .494-1.849 2.5 2.5 0 0 0-.955-1.655M108.015 111.666c3.234 2.238 6.594 2.993 7.479 3.176.064.017.129.027.195.04l.024.005v-.002c.43.075.876.049 1.289-.102a2.5 2.5 0 0 0 1.411-1.292 2.5 2.5 0 0 0 .109-1.809l.009-.003a.4.4 0 0 1-.023-.056l-.012-.045-.002-.012c-.008-.021-.022-.037-.03-.057-.326-.909-1.799-5.396-5.788-8.116-2.335-1.528-4.307-1.98-5.674-1.975-.916 0-1.535.193-1.791.297a2.505 2.505 0 0 0-1.566 2.464c.032.301.251 4.536 4.37 7.487M98.098 112.903c-.271 0-.48.026-.622.052a2.5 2.5 0 0 0-2.013 2.11 5.5 5.5 0 0 0-.046.76 7.79 7.79 0 0 0 2.156 5.381c2.229 2.286 4.733 3.21 4.905 3.293l.001-.002c.352.136.73.203 1.11.172a2.53 2.53 0 0 0 1.699-.878 2.5 2.5 0 0 0 .581-1.825v-.009l-.006-.061c-.089-.213-.25-3.828-2.997-6.661-1.867-1.853-3.723-2.354-4.768-2.332M71.065 109.829c-.288.098-3.276.907-4.784 4.388-1.008 2.452-1.057 4.706-1.068 5.513 0 .148.004.237.005.279a2.5 2.5 0 0 0 .257 1.045c.031.063.075.117.112.177l.013.02q.162.26.383.474l.012.012c.266.253.579.453.929.567.049.017.101.021.15.033q.041.011.082.019.252.057.509.062.056.003.113.002c.19-.005.381-.026.565-.074l.021-.004q.242-.066.468-.178l.008-.003c.021-.011.038-.026.06-.038.018-.009.038-.013.056-.022.158-.17 3.409-1.759 4.912-5.409.457-1.218.639-2.283.639-3.179.009-1.393-.458-2.331-.697-2.671a2.49 2.49 0 0 0-2.745-1.013m-2.07 5.518-.405-.169zM82.521 61.02c.195-.23 1.644-1.745 1.681-4.463 0-.345-.028-.708-.086-1.076-.425-2.566-1.583-4.362-1.796-4.706a2.5 2.5 0 0 0-.841-.845c-.046-.027-.095-.042-.142-.065l-.01-.005a2.4 2.4 0 0 0-.579-.208l-.019-.005a2.5 2.5 0 0 0-1.253.049q-.029.01-.056.021a2.5 2.5 0 0 0-.477.216q-.054.03-.106.063a2.5 2.5 0 0 0-.406.329c-.017.017-.036.03-.053.048q-.184.194-.329.432l-.003.008q-.009.018-.018.037c-.009.019-.017.021-.023.032-.071.185-1.249 2.137-1.292 4.868 0 .438.037.898.126 1.373.496 2.842 2.143 4.186 2.784 4.437a2.505 2.505 0 0 0 2.898-.54M87.507 129.58l.003-.003a2.5 2.5 0 0 0 .49-.519 2.6 2.6 0 0 0 .227-.387c.016-.033.04-.06.055-.094l.04-.104.003-.005.006-.011.004-.015c.245-.62 1.287-3.313 1.306-6.593 0-1.073-.118-2.222-.464-3.38-1.281-4.493-3.918-5.944-4.603-6.117a2.51 2.51 0 0 0-2.793.864c-.155.232-1.819 2.412-1.845 5.915 0 .821.098 1.705.339 2.623 1.028 3.843 3.129 6.612 3.657 7.287q.047.064.099.126l.024.031q.013.011.022.021.193.227.436.402l.023.019c.182.129.373.243.584.32.386.14.8.169 1.203.112h.021l.018-.005c.23-.036.458-.092.67-.19.17-.077.327-.182.475-.297M66.555 55.083l-.013-.004a2.5 2.5 0 0 0-1.075-.255 2.5 2.5 0 0 0-.789.141 2.5 2.5 0 0 0-.979.591c-.028.028-.048.063-.075.092l-.013.016a2.5 2.5 0 0 0-.375.561 2.6 2.6 0 0 0-.177.47c-.008.032-.021.063-.028.096a2.5 2.5 0 0 0-.063.534v.011q.002.018.004.035c.002.017-.004.022-.004.034.075.219-.012 5.51 3.382 9.566 2.672 3.112 5.307 3.699 6.383 3.665q.22 0 .343-.018a2.51 2.51 0 0 0 2.182-1.943c.029-.135.164-.786.164-1.779.003-1.595-.371-4.203-2.337-6.612-2.843-3.45-6.366-5.106-6.53-5.201M51.169 96.868q.194.155.419.271.057.031.116.059.234.106.495.162c.022.005.042.018.064.021l.032.006.009.003.011.001c.22.04 1.071.181 2.258.181 1.347-.012 3.144-.155 4.935-1.129 2.938-1.56 3.716-3.794 3.739-4.496a2.5 2.5 0 0 0-1.434-2.542c-.208-.09-1.308-.591-2.988-.599a7.65 7.65 0 0 0-3.495.84 14.7 14.7 0 0 0-4.394 3.53c-.035.037-.065.079-.1.118l-.078.095q-.006.01-.012.02a2.5 2.5 0 0 0-.489 1.089 2.5 2.5 0 0 0-.012.694q.033.312.141.6l.004.017.005.009c.148.387.391.729.705.999zM67.663 104.486a2.5 2.5 0 0 0-1.97-2.156c-.132-.026-.73-.145-1.644-.145a10.38 10.38 0 0 0-6.716 2.433c-2.992 2.544-4.592 5.594-4.999 6.404-.031.054-.056.109-.083.165l-.02.038-.007.023a2.47 2.47 0 0 0-.227 1.246 2.493 2.493 0 0 0 2.503 2.273c.033 0 .065.01.099.009l.048-.007c.019-.001.037.003.056.001h.009c.028-.003.056-.013.084-.016.995-.081 5.679-.359 9.315-3.496 3.017-2.672 3.602-5.269 3.572-6.379a3 3 0 0 0-.02-.393M149.616 96.469c-.553 0-1.002.449-1.002.999 0 4.721-.538 9.313-1.555 13.72a1 1 0 1 0 1.949.449 63 63 0 0 0 1.606-14.169 1 1 0 0 0-.998-.999M145.672 119.251a1 1 0 0 0-1.298.562c-8.884 22.438-30.74 38.303-56.298 38.303a.997.997 0 1 0 0 1.997c26.401 0 48.982-16.386 58.157-39.563a1 1 0 0 0-.561-1.299" />
    </symbol>
    <symbol id="eggplant" xmlns="http://www.w3.org/2000/svg">
      <path
        d="M120.112 166.286c-1.708-11.853-2.338-22.201-2.338-31.284-.021-26.323 5.269-41.575 5.39-53.744v-.299c-.096-7.905-1.915-18.882-6.734-28.566-3.126-6.393-8.05-12.466-14.838-15.784L118.488 7.51a5.004 5.004 0 0 0-1.813-6.835 5 5 0 0 0-6.834 1.813L91.84 33.49c-.106.184-.177.377-.258.568-.471-.023-.936-.06-1.418-.059-5.697-.188-34.75.771-51.479 34.775-9.365 18.939-27.383 67.796-32.43 93.262C4.391 171.617.009 189.99 0 208.93c.021 14.445 2.502 29.524 11.357 41.429C20.215 262.316 35.51 270.063 58.158 270h.129c25.986.09 43.053-8.59 52.837-21.855 9.774-13.208 12.299-29.899 12.321-45.605-.003-13.528-1.933-26.513-3.333-36.254M90.164 44.001c7.972.026 13.254 5.003 17.327 12.877 2.668 5.269 4.317 11.591 5.108 17.112-2.683-3.967-5.423-7.278-5.459-7.521a2.506 2.506 0 0 0-2.914-.789 2.505 2.505 0 0 0-1.549 2.591c0 .004.052.458.052 1.399.006 1.952-.273 5.64-1.865 9.345-.596 1.399-1.793 3.796-2.857 5.87-2.141-3.497-5.482-8.781-8.824-13.36-5.007-6.777-7.537-18.073-7.58-18.067a2.501 2.501 0 0 0-4.558-.786c.015.124-6.224 9.191-10.461 9.895-1.993.478-3.376.727-4.315.858l-1.356-8.132c12.586-11.32 25.711-11.156 29.251-11.292M58.287 259.999h-.118c-40.387-.572-47.413-24.104-48.168-51.069-.009-17.472 4.12-35.099 6.069-44.967 4.586-23.652 22.797-73.179 31.571-90.736 2.755-5.48 5.79-9.924 8.936-13.533l1.12 6.716a2.5 2.5 0 0 0 1.488 1.892c.486.195.915.25 1.606.259 1.151-.006 3.083-.213 6.949-1.128 4.344-1.202 7.986-4.815 10.396-7.784 1.313 4.161 3.583 10.099 7.006 14.828C90.47 81.763 95.987 91.244 96 91.257a2.495 2.495 0 0 0 4.367-.083c.018-.038 3.686-6.915 5.093-10.188a28 28 0 0 0 1.762-5.925q.442.633.89 1.293c2.296 3.174 4.478 7.444 4.594 8.187-.05.209-.092.244-.126.861.009.136-.012.294.106.729.001.063.044.193.122.349-1.196 9.894-5.02 25.63-5.036 48.524 0 9.547.665 20.388 2.441 32.712 1.407 9.739 3.232 22.238 3.23 34.825-.79 29.644-8.013 56.886-55.156 57.458" />
      <path
        d="M104.475 216.572a1 1 0 0 0-1.246.671 46 46 0 0 1-2.353 6.175 1 1 0 0 0 1.813.847 48 48 0 0 0 2.453-6.445 1 1 0 0 0-.667-1.248M99.615 227.964a1.003 1.003 0 0 0-1.376.319c-8.124 13.041-22.584 21.718-39.077 21.718-.553 0-.999.446-.999.999s.446.999.999.999c17.207 0 32.303-9.054 40.772-22.656a1 1 0 0 0-.319-1.379" />
    </symbol>
    <symbol id="garlic" xmlns="http://www.w3.org/2000/svg">
      <path
        d="M125.144 65.094c-11.193-7.281-33.365-15.497-32.15-26.31.003-2.021.544-4.451 2.11-7.491 12.174-23.571 10.263-18.205 13.095-24.192a5.01 5.01 0 0 0-1.287-5.899 5.01 5.01 0 0 0-6.025-.365c-.237.165-.449.342-.68.51a2.48 2.48 0 0 0-2.069.547c-2.182 1.888-3.989 4.101-5.489 6.536-6.454 7.546-10.636 16.351-19.306 23.826-15.537 13.797-28.229 28.468-42.454 39.43C15.758 83.521.717 99.319.011 118.44q-.011.382-.011.766c.257 15.06 10.411 24.683 14.95 28.331.774 5.813 5.982 18.941 26.83 23.041 3.02.639 6.181.854 9.324.857 8.351-.015 16.695-1.562 20.358-2.329 4.232 2.248 15.33 7.486 28.282 7.558 4.154 0 8.513-.57 12.833-2.044 16.689-5.792 24.965-18.395 27.628-23.178 6.027-2.509 23.891-11.36 26.082-32.176.101-1.184.152-2.353.152-3.498-.457-29.997-32.241-43.521-41.295-50.674M10.001 119.206q0-.257.006-.513c.109-13.378 12.609-28.114 27-39.094 11.81-9.149 22.103-20.056 33.048-30.63C65.125 62.965 48.499 77.793 32.798 91c-11.993 10.147-15.004 23.738-14.976 35.817 0 3.631.266 7.144.631 10.446a36 36 0 0 1-2.171-2.392c-3.282-3.945-6.298-9.349-6.281-15.665m4.89 25.478-.002.008.003-.022zm28.962 16.112c-19.792-4.568-18.548-14.469-18.983-15.453h-.003a4.96 4.96 0 0 0-.701-2.892c-.692-4.767-1.345-10.125-1.343-15.634.026-11.371 2.684-23.062 13.208-32.006 17.201-14.702 36.428-30.982 40.047-49.023.197-1.1.492-2.202.852-3.3q.36-.33.723-.657c-1.367 10.884-.557 23.791-6.675 34.452-7.614 13.576-16.504 33.42-16.547 51.093 0 2.023.121 4.021.377 5.979 1.764 13.984 7.305 20.909 12.729 26.342-3.878.734-10.371 1.75-16.431 1.737-2.662.004-5.198-.201-7.253-.638m83.029-7.71c-3.713 4.336-9.428 9.302-17.534 12.068-3.115 1.065-6.359 1.509-9.604 1.509-12.788.086-24.833-7.243-24.933-7.12-.154-.093-.32-.155-.481-.23-6.448-6.322-12.409-11.054-14.566-26.611a41 41 0 0 1-.334-5.325c-.043-15.997 8.466-35.495 15.905-48.64 7.546-13.621 5.86-29.287 7.706-39.475.386 5.214 2.276 9.529 5.037 13.156a63 63 0 0 0 1.36 5.3c5.205 16 23.022 22.688 36.59 36.051 7.162 6.829 10.053 19.668 10.015 31.472.018 7.048-1.015 13.732-2.42 18.291a4.96 4.96 0 0 0-1.541 1.895c0 .008-1.495 3.339-5.2 7.659m29.442-34.684c-.751 8.66-5.777 14.587-11.071 18.666a39.3 39.3 0 0 1-5.746 3.647c.961-4.519 1.522-9.843 1.537-15.476-.041-12.515-2.772-26.485-11.538-35.064-13.387-12.735-28.593-19.779-33.993-30.625 8.802 6.496 19.677 10.031 23.675 13.577 11.587 8.149 37.712 21.062 37.251 42.641 0 .859-.037 1.734-.115 2.634" />
      <path
        d="M120.152 104.956a1.003 1.003 0 0 0-.242 1.394 31.3 31.3 0 0 1 5.464 13.875 1 1 0 0 0 1.98-.271 33.3 33.3 0 0 0-5.81-14.757 1 1 0 0 0-1.392-.241M126.151 130.341a1 1 0 0 0-1.186.769c-3.037 14.219-15.675 24.891-30.806 24.888a1 1 0 0 0 0 2.001c16.092-.003 29.53-11.34 32.763-26.471a1 1 0 0 0-.771-1.187" />
    </symbol>
    <symbol id="coconut" xmlns="http://www.w3.org/2000/svg">
      <path
        d="m167.124 17.187-.02-.015q-.033-.02-.067-.042a107 107 0 0 0-2.799-1.732q-.407-.243-.815-.482a109 109 0 0 0-2.348-1.342c-.21-.116-.418-.236-.628-.351a108 108 0 0 0-2.934-1.543q-.359-.18-.721-.358-1.228-.611-2.474-1.193-.362-.17-.725-.338a109 109 0 0 0-3.099-1.362c-.163-.069-.329-.133-.493-.202q-1.363-.564-2.746-1.092-.384-.148-.771-.293a110 110 0 0 0-3.26-1.165l-.046-.015a110 110 0 0 0-4.043-1.269 108 108 0 0 0-3.057-.852q-.155-.042-.311-.084a108 108 0 0 0-3.374-.812q-.415-.092-.829-.181-1.406-.305-2.824-.572c-.235-.044-.469-.092-.705-.135q-1.691-.307-3.397-.562c-.272-.041-.546-.076-.819-.114q-1.38-.195-2.77-.355-.466-.055-.934-.106a109 109 0 0 0-3.445-.315c-.217-.016-.434-.026-.65-.041a110 110 0 0 0-3.955-.199A108 108 0 0 0 108.501 0C48.576.002.006 48.574 0 108.499c0 1.441.037 2.873.093 4.301l.027.72q.095 2.056.265 4.093c.01.108.013.218.021.326.003.027.012.052.015.079 4.826 55.466 51.363 98.981 108.08 98.983C168.426 216.998 216.997 168.424 217 108.5c-.002-38.33-19.874-72.011-49.876-91.313M151.47 27.216c8.977 11.734 13.016 25.273 13.021 39.071.028 28.037-16.899 57.055-43.217 72.151a83.3 83.3 0 0 1-41.567 11.083c-27.986-.008-55.093-14.008-69.675-39.548-.007-.493-.031-.98-.031-1.474.098-54.397 44.103-98.4 98.5-98.498 1.002 0 1.998.025 2.992.055a97 97 0 0 1 1.622.064q.56.027 1.12.061a98.5 98.5 0 0 1 22.548 3.987c5.452 3.143 10.376 7.441 14.687 13.048m-42.969 179.783c-50.433-.091-91.926-37.923-97.785-86.787 16.271 22.263 42.317 34.314 68.991 34.309a88.34 88.34 0 0 0 44.058-11.751c27.866-16.041 45.698-46.455 45.727-76.484.006-14.771-4.37-29.467-14.052-42.111a58 58 0 0 0-3.335-3.962c32.492 16.096 54.826 49.552 54.897 88.285-.101 54.398-44.104 98.403-98.501 98.501" />
      <path
        d="M104.528 18.01c-14.466.011-30.501 5.435-46.777 14.826C30.852 48.479 19.492 77.894 19.42 94.79c.015 3.8.553 7.033 1.914 9.581 12.138 22.374 35.378 34.611 59.231 34.605a69.66 69.66 0 0 0 34.865-9.341c22.049-12.759 36.138-36.9 36.169-60.794.006-11.751-3.463-23.468-11.141-33.535-9.016-11.896-21.751-17.337-35.93-17.296M146.6 68.84c.028 21.913-13.171 44.658-33.668 56.465a64.66 64.66 0 0 1-32.366 8.67c-22.175-.009-43.64-11.339-54.835-31.989-.76-1.359-1.324-3.918-1.31-7.197-.072-14.909 10.807-43.29 35.829-57.624 15.762-9.109 31.085-14.167 44.278-14.155 12.964.037 23.811 4.692 31.955 15.323 6.972 9.161 10.111 19.723 10.117 30.507M187.464 139.034a1.003 1.003 0 0 0-1.308.541c-9.502 22.936-28.148 41.771-52.212 51.387a1.003 1.003 0 0 0-.559 1.301.997.997 0 0 0 1.301.555c24.57-9.816 43.608-29.047 53.315-52.477a.997.997 0 0 0-.537-1.307M194.113 105.844a1 1 0 0 0-1.021.976 90.7 90.7 0 0 1-2.202 17.857 1 1 0 0 0 .754 1.197 1 1 0 0 0 1.194-.757 92.4 92.4 0 0 0 2.252-18.251 1 1 0 0 0-.977-1.022" />
    </symbol>
    <symbol id="avocado" xmlns="http://www.w3.org/2000/svg">
      <path
        d="M132.565 122.798c-4.718-17.439-11.284-44.854-17.871-68.659-3.3-11.912-6.596-22.921-9.728-31.471-3.472-8.659-5.282-14.371-10.375-18.004C89.375 1.558 84.383-.003 79.643 0 65.254.346 58.017 12.917 52.729 23.301 45.948 37.197 5.461 96.488.85 139.284c-.547 5.245-.85 10.58-.85 15.911.018 18.431 3.562 36.94 13.732 51.298C23.871 220.901 41 230.396 65.397 230.295q.721 0 1.454-.009c48.712-1.008 68.604-48.681 68.449-85.181-.002-7.982-.915-15.568-2.735-22.307m-65.857 97.49q-.658.009-1.311.009c-43.098-.294-54.803-30.371-55.399-65.102 0-4.951.282-9.946.798-14.874 3.854-38.504 43.214-97.533 50.88-112.553 5.061-10.34 11.098-18.116 17.967-17.771 2.519 0 5.723.817 9.836 3.262.015-.012.023-.017.409.53 3.714 4.638 10.441 25.169 16.392 47.477 6.114 22.501 12.148 47.558 16.634 64.143 1.549 5.717 2.39 12.484 2.387 19.696-.155 33.988-18.005 74.889-58.593 75.183" />
      <path
        d="M68.521 93.69c-10.66.112-31.652 11.478-37.283 38.639-.853 4.215-1.445 8.893-1.448 13.675.003 8.455 1.859 17.351 7.765 24.239 5.906 6.897 15.724 11.34 30.437 11.313h.547c28.25-.124 37.45-22.846 37.358-40.688-.006-6.371-1.063-12.267-2.824-16.804-6.841-16.861-23.495-30.045-34.552-30.374m-.017 82.867h-.513c-27.313-.309-32.829-14.996-33.2-30.553 0-4.364.549-8.731 1.347-12.685 4.88-24.807 24.761-34.746 32.384-34.632 7.229-.328 24.285 12.151 29.893 27.196 1.483 3.783 2.488 9.187 2.482 14.984-.231 16.66-7.465 35.427-32.393 35.69" />
      <path
        d="M93.109 146.09a1 1 0 0 0-1.184.771c-2.499 11.887-13.096 20.624-25.518 20.621q-.756 0-1.522-.043a1 1 0 0 0-.113 1.997q.822.045 1.635.047c13.372-.003 24.777-9.396 27.476-22.21a1 1 0 0 0-.774-1.183M89.839 127.948a1 1 0 0 0-.409 1.353 25.76 25.76 0 0 1 3.037 11.262.997.997 0 0 0 1.033.965c.553-.021.984-.483.965-1.034a27.7 27.7 0 0 0-3.271-12.134 1.003 1.003 0 0 0-1.355-.412" />
    </symbol>
    <symbol id="chili" xmlns="http://www.w3.org/2000/svg">
      <path
        d="M278.126 22.326a5.18 5.18 0 0 0-3.616-1.472c-3.405.43-3.146 1.129-4.508 1.812-5.562 4.396-49.037 16.814-88.6 22.149-8.746 1.221-17.022 1.765-24.801 1.765-27.219.006-48.393-6.671-61.972-14.144-14.41-7.856-24.725-12.338-34.176-12.427-2.876-.003-5.662.469-8.25 1.462-3.2 1.354-6.13 3.44-8.7 6.003-.824-.729-1.713-1.517-2.648-2.49C29.487 15.138 7.855.906 7.763.834L7.8.859 7.791.854A4.994 4.994 0 0 0 .854 2.209a5 5 0 0 0 1.355 6.94l.009.006.038.023c.02.015 9.566 6.313 19.098 13.266 4.759 3.472 9.515 7.11 12.946 10.09 1.284 1.113 2.384 2.143 3.192 2.979-2.713 4.941-4.346 10.54-4.502 16.036q0 .512.02 1.021c.734 8.443 7.741 16.165 20.624 24.059 13.015 7.727 32.51 14.903 59.717 18.962a142 142 0 0 0 20.938 1.546c46.038-.028 83.666-21.858 104.604-34.208 10.591-6.271 20.373-14.146 27.61-20.75 3.619-3.306 6.589-6.285 8.731-8.64 1.074-1.184 1.935-2.199 2.62-3.115.622-1.261 1.339-.9 1.805-4.425.022-.834-.26-2.424-1.533-3.673m-44.324 31.992c-20.719 12.283-56.692 32.847-99.514 32.817-6.339 0-12.833-.445-19.463-1.434-26.183-3.897-44.512-10.783-56.082-17.67-11.699-6.719-16.038-14.163-15.741-15.888a13 13 0 0 1-.011-.596c-.164-3.516 1.37-7.854 3.615-11.67a4.98 4.98 0 0 0 1.88-2.847c2.3-3.114 4.97-5.52 7.29-6.22 1.376-.523 2.864-.803 4.678-.806 5.907-.09 15.442 3.475 29.358 11.192 15.186 8.343 37.925 15.373 66.791 15.379 8.245 0 16.985-.576 26.183-1.86 26.671-3.857 53.442-9.805 71.831-15.425-6.096 5.188-13.402 10.739-20.815 15.028" />
      <path
        d="M67.025 61.006a109.6 109.6 0 0 1-14.221-9.843 1 1 0 1 0-1.264 1.552 112 112 0 0 0 14.48 10.018 1 1 0 0 0 1.368-.359 1 1 0 0 0-.363-1.368M136.119 75.379a111.917 111.917 0 0 1-57.438-8.483 1.001 1.001 0 0 0-.797 1.836v-.003a113.9 113.9 0 0 0 45.312 9.396c4.361 0 8.752-.251 13.153-.761a1 1 0 0 0-.23-1.985" />
    </symbol>
    <symbol id="cucumber" xmlns="http://www.w3.org/2000/svg">
      <path
        d="M105.018 144.409c.17-4.258-1.675-7.913-3.658-9.477-.21-.178-.387-.322-.543-.447-2.403-33.352-4.908-55.623-8.336-71.551.669-1.192 1.235-2.791 1.083-4.166-.006-1.419-.248-2.855-.709-4.629-.434-2.471-2.235-5.154-4.521-6.24-3.74-10.528-8.731-17.529-14.934-23.173a18.1 18.1 0 0 0-5.544-3.479c1.574-.693 3.082-1.521 4.451-2.492 2.17.891 4.865 1.42 8.114 1.424 1.491 0 3.108-.093 4.868-.285a2.5 2.5 0 0 0-.542-4.972 40 40 0 0 1-4.326.256c-1.607-.052-2.941-.184-4.059-.377 1.41-1.965 2.324-4.273 2.483-6.973a12 12 0 0 0-.411-3.063C77.877 2.226 75.928-.037 73.343 0c-4.811.507-7.404 5.106-7.672 9.986.005 2.046.715 4.005 2.129 5.65-.126.071-.249.144-.379.214-2.556 1.391-5.608 2.372-8.403 2.89v-7.33a4.997 4.997 0 0 0-5-5.001 4.997 4.997 0 0 0-4.998 5.001v9.257c-1.102.188-2.133.368-3.06.508-15.344 2.4-28.203 14.963-35.825 35.829-2.381.99-4.233 3.448-4.821 5.714-.5 1.417-.823 2.689-.834 4.143-.187 1.518.583 3.143 1.517 4.349-2.79 12.17-3.454 22.119-3.831 34.65-1.037 1.255-2.304 4.066-2.153 7.076q0 .306.008.634v-.006c.038 3.575 1.204 6.422 2.226 7.939 1.045 1.649.723 1.07.792 1.321 1.359 16.228 2.394 45.827 4.014 63.457-.194.28-.491.733-.867 1.437-.729 1.394-1.235 3.368-1.212 5.545q0 .74.063 1.543c.132 2.803 1.687 5.147 2.92 6.364-.472 1.146-1.034 2.886-1.026 4.995 0 .619.046 1.264.136 1.926.304 3.202 1.949 6.045 3.563 7.236 2.5 15.167 5.951 28.689 11.614 39.023 5.628 10.498 14.669 18.141 26.715 18.059h.075c20.346.135 41.958-15.453 49.887-55.267l.028.02c.415-1.017 2.942-2.447 4.011-6.964a10 10 0 0 0 .118-1.515c-.328-4.632-1.979-6.96-1.685-7.412v-.046l.003-.003c.887-8.093 1.361-17.003 1.361-26.805q.001-10.08-.695-21.453c.319-.372.79-.959 1.323-1.83.997-1.664 1.659-4.025 1.633-6.725M71.913 6.285c.521-.791 1.063-1.085 1.304-1.207.103.162.254.463.386.974a6.9 6.9 0 0 1 .245 1.776c.029 1.707-.758 3.368-2.186 4.885-.742-.852-.922-1.817-.99-2.726-.012-1.249.515-2.703 1.241-3.702M6.625 68.573l-.002.009h-.001zm87.96 77.742c-.074.235-2.521 2.196-2.573 5.881q0 .273.017.536v-.006c.493 7.718.729 14.94.729 21.691 0 9.479-.46 18.027-1.304 25.713v-.006q-.064.593-.063 1.146c.246 3.904 1.488 6.374 1.693 7.148-.38.97-2.677 2.228-3.922 6.522-7.982 37.444-25.146 47.247-40.153 47.466h-.049c-7.663-.084-12.954-4.085-17.957-12.883-4.84-8.731-8.285-21.781-10.672-36.808-.173-1.42-1.045-3.104-1.97-3.968-.579-.571-.99-.851-1.188-.996-.049-.15-.12-.445-.199-1.027a4 4 0 0 1-.043-.562c-.265-1.039.896-.794 1.598-5.956q.001-.45-.055-.918c-.924-4.232-3.296-4.745-3.371-5.147l-.098-.13a9 9 0 0 1-.034-.751c.089-1.287.052-.783.256-1.229.146-.253 1.912-2.357 1.871-5.273a10 10 0 0 0-.04-.855c-1.606-17.037-2.654-47.088-4.057-63.912-.207-3.065-1.94-5.23-2.279-5.795-.363-.696-.562-.69-.706-2.944v-.006q-.003-.16-.002-.312c0-.714.083-.993.092-1.019.046-.032-.133-.041.141-.127.34-.311 1.897-2.289 1.886-4.574.403-13.848 1.022-23.353 4.2-36.244l.003-.009c.101-.414.179-.9.179-1.459.081-1.103-.403-2.269-1.01-3.177 1.453-.693 3.011-2.088 3.111-3.278 6.926-20.644 17.854-30.313 28.877-31.994 3.733-.594 7.772-1.423 11.282-1.411 3.442.021 5.956.699 7.864 2.447 5.524 5.13 9.431 10.563 12.938 21.11.244 1.515 2.272 3.297 3.68 3.779.118.477.201.88.245 1.167-.667.733-1.399 2.419-1.328 3.753 0 .564.072 1.057.17 1.491 3.46 15.237 6.092 37.939 8.587 73.023.495 4.525 3.933 5.835 3.795 5.999l.061.084c.055.121.235.653.235 1.911-.111 1.863-.189 1.445-.437 1.909" />
      <path
        d="M40.819 50.143a2.5 2.5 0 0 0-.066-3.535 2.5 2.5 0 0 0-3.535.066c-2.861 3.031-7.361 8.04-7.695 14.636-.055 1.379 1.02 2.542 2.398 2.597s2.542-1.022 2.597-2.4c.091-4.173 3.589-8.609 6.301-11.364M71.466 55.892c-1.342-5.764-5.162-12.736-7.747-15.318a2.5 2.5 0 0 0-3.532.133 2.5 2.5 0 0 0 .133 3.532c1.131.869 5.489 8.48 6.252 12.687a2.502 2.502 0 0 0 4.894-1.034M37.675 107.82a2.5 2.5 0 0 0 1.756-3.069c-.467-1.713-.659-3.566-.659-5.435-.003-4.181.97-8.392 1.678-11.325a2.5 2.5 0 0 0-4.862-1.166c-.712 2.979-1.814 7.568-1.817 12.491 0 2.208.225 4.496.835 6.748a2.5 2.5 0 0 0 3.069 1.756M26.911 150.072c-.002-3.961.349-8.294.6-11.467a2.5 2.5 0 0 0-4.983-.394c-.251 3.173-.616 7.62-.616 11.861.003 2.821.152 5.538.668 7.879a2.5 2.5 0 1 0 4.88-1.088c-.387-1.71-.554-4.175-.549-6.791M59.551 146.951a2.5 2.5 0 0 0-1.986 2.925c.229 1.157.466 4.468.457 7.771.003 2.697-.146 5.504-.466 7.338a2.5 2.5 0 1 0 4.925.849c.403-2.349.539-5.306.542-8.187-.009-3.564-.202-6.84-.547-8.706a2.505 2.505 0 0 0-2.925-1.99M77.483 98.832c.138-.806.188-1.646.188-2.55-.069-6.077-2.091-14.958-3.383-17.924a2.5 2.5 0 0 0-4.537 2.101c.748 1.442 2.988 11.046 2.919 15.822 0 .708-.043 1.304-.115 1.701a2.501 2.501 0 0 0 4.928.85M46.518 191.379a2.495 2.495 0 0 0-2.527-2.47 2.5 2.5 0 0 0-2.473 2.527c.098 5.052 1.024 13.188 3.238 18.032a2.5 2.5 0 0 0 4.526-2.124c-1.626-3.327-2.755-11.592-2.764-15.965M39.425 232.73a2.5 2.5 0 0 0-3.083-1.73 2.504 2.504 0 0 0-1.73 3.084c1.468 4.997 1.5 9.738 5.613 14.065a2.5 2.5 0 0 0 3.588-3.483c-2.646-2.634-2.811-6.101-4.388-11.936M81.859 138.542c0 2.842-.104 5.487-.182 7.79a1 1 0 0 0 .964 1.037 1.003 1.003 0 0 0 1.034-.968c.077-2.297.185-4.969.185-7.859 0-4.746-.285-10.087-1.463-15.378a1 1 0 1 0-1.952.434c1.132 5.078 1.417 10.277 1.414 14.944M84.098 157.283a1 1 0 0 0-.999-.999 1 1 0 0 0-1.002.999v.807c0 4.062.023 8.083.023 12.076.003 20.437-.647 40.153-8.44 60.947a1 1 0 0 0 1.874.699c7.928-21.159 8.567-41.179 8.567-61.646 0-4.002-.023-8.023-.023-12.076z" />
    </symbol>
    <symbol id="apple" xmlns="http://www.w3.org/2000/svg">
      <path
        d="M164.745 11.568c-5.516-1.822-10.835-2.507-15.799-2.507-12.289.092-22.761 4.041-29.458 5.317 2.053-3.759 5.884-8.68 7.458-10.143a2.501 2.501 0 0 0-3.598-3.472c-2.147 2.429-7.354 8.184-9.395 13.78-3.864-1.638-12.552-9.064-29.051-9.197-4.448 0-9.486.523-15.258 1.762C22.038 17.073-.339 55.366.004 104.83c.011 52.092 36.831 95.572 85.914 105.879h.003c.999.21 1.989.302 2.951.302 9.14-.559 15.099-6.267 18.988-5.76 6.037-.236 13.965 4.459 23.459 4.715 1.702 0 3.466-.192 5.24-.671 45.35-11.933 73.625-40.74 80.828-89.461 1.336-8.72 1.978-16.913 1.978-24.594.218-45.858-23.526-73.633-54.62-83.672m42.756 106.751c-7.254 45.52-30.958 69.561-73.542 81.32-.817.219-1.678.325-2.64.325-5.519.257-13.648-4.482-23.459-4.715-9.382.506-15.687 6.318-18.988 5.76-.322 0-.613-.028-.904-.089h.003c-44.518-9.348-77.978-48.824-77.966-96.091.342-46.968 19.106-78.554 61.738-87.941 5.173-1.111 9.5-1.543 13.159-1.543 16.369-.158 18.965 8.248 30.736 9.425 10.226-.256 20.84-5.817 33.308-5.708 4.057.003 8.248.547 12.664 2.003 27.369 9.253 47.534 31.69 47.753 74.175 0 7.125-.592 14.815-1.862 23.079" />
      <path
        d="M190.715 120.004a1 1 0 0 0-1.157.814c-4.313 24.588-20.494 45.062-42.367 55.201a1 1 0 0 0-.486 1.327 1 1 0 0 0 1.327.486c22.46-10.412 39.065-31.422 43.495-56.669a1.003 1.003 0 0 0-.812-1.159M188.625 89.955a76 76 0 0 1 2.075 17.682 1 1 0 1 0 2.001 0c0-6.25-.737-12.327-2.13-18.147a1 1 0 0 0-1.206-.74 1 1 0 0 0-.74 1.205" />
    </symbol>
    <symbol id="watermelon" xmlns="http://www.w3.org/2000/svg">
      <path
        d="M267.497 0H2.499A2.5 2.5 0 0 0 0 2.498v3c.003 74.561 60.44 134.998 135.001 135.001 74.561-.003 134.995-60.44 134.998-135.001v-3A2.5 2.5 0 0 0 267.497 0M135.001 130.498c-69.033-.124-124.876-55.967-125-125 0-.171.03-.498.03-.498h249.938s.032.327.032.498c-.127 69.033-55.967 124.876-125 125" />
      <path
        d="M240.391 26.847a.996.996 0 0 0-1.166.797 102.3 102.3 0 0 1-5.591 19.182 1 1 0 0 0 1.855.746 104 104 0 0 0 5.703-19.559 1 1 0 0 0-.801-1.166M227.227 61.966a1 1 0 0 0-1.374.331c-14.368 23.41-37.83 40.637-65.463 46.763a1 1 0 0 0 .432 1.952c28.178-6.244 52.092-23.805 66.737-47.67a1.004 1.004 0 0 0-.332-1.376M191.8 42.77c4.344-.005 6.583-2.841 6.589-5.907-.093-5.464-4.576-12.209-5.254-13.278a1.5 1.5 0 0 0-.498-.572 1.5 1.5 0 0 0-1.125-.222 1.5 1.5 0 0 0-.394.146l-.045.024q-.119.068-.224.155-.037.029-.073.06a1.5 1.5 0 0 0-.171.196c-.015.021-.036.036-.05.057-.022.138-5.245 7.537-5.346 13.433.01 3.067 2.247 5.902 6.591 5.908m.016-15.604c1.455 2.544 3.641 6.883 3.573 9.697-.221 1.969-.299 2.683-3.589 2.908-3.291-.225-3.366-.939-3.59-2.908-.068-2.816 2.152-7.154 3.606-9.697M169.489 77.712c-.093-5.451-4.554-12.175-5.246-13.266a1.47 1.47 0 0 0-.504-.583 1.5 1.5 0 0 0-1.538-.069l-.009.005q-.147.079-.275.191l-.025.021a1.5 1.5 0 0 0-.227.26l-.009.01c-.023.138-5.242 7.537-5.346 13.432.009 3.066 2.246 5.902 6.59 5.907 4.344-.006 6.583-2.842 6.589-5.908m-10.176 0c-.07-2.815 2.15-7.151 3.604-9.695 1.455 2.544 3.64 6.881 3.572 9.695-.222 1.969-.299 2.683-3.59 2.908-3.29-.224-3.365-.938-3.586-2.908M77.037 23.013a1.5 1.5 0 0 0-1.53-.071l-.022.012a1.5 1.5 0 0 0-.252.175q-.024.02-.049.04a1.4 1.4 0 0 0-.18.207c-.015.02-.035.035-.048.055-.023.138-5.242 7.537-5.343 13.433.006 3.066 2.243 5.901 6.586 5.907 4.344-.005 6.584-2.841 6.59-5.907-.093-5.44-4.535-12.146-5.243-13.261a1.5 1.5 0 0 0-.509-.59m-.838 16.758c-3.288-.225-3.365-.939-3.587-2.908-.068-2.815 2.151-7.152 3.605-9.696 1.455 2.545 3.64 6.882 3.572 9.696-.222 1.969-.3 2.682-3.59 2.908M134.866 29.032a1.5 1.5 0 0 0-1.12-.248 1.5 1.5 0 0 0-.436.157l-.024.012a1.5 1.5 0 0 0-.286.2l-.004.003a1.5 1.5 0 0 0-.22.245l-.006.008-.011.02-.003.003c-.023.138-5.246 7.536-5.346 13.429.009 3.066 2.246 5.902 6.589 5.907 4.344-.005 6.584-2.841 6.59-5.907-.093-5.435-4.533-12.136-5.242-13.255a1.5 1.5 0 0 0-.481-.574m-.867 16.738c-3.29-.225-3.365-.938-3.59-2.908-.068-2.816 2.153-7.153 3.607-9.696 1.455 2.544 3.64 6.882 3.572 9.696-.221 1.969-.298 2.683-3.589 2.908M105.937 63.863a1.5 1.5 0 0 0-1.535-.069l-.012.006q-.147.08-.275.192l-.023.019a1.5 1.5 0 0 0-.232.266l-.006.009-.014.026c-.192.371-5.227 7.604-5.329 13.4.008 3.066 2.245 5.902 6.589 5.907 4.344-.005 6.583-2.841 6.589-5.907-.093-5.422-4.508-12.102-5.235-13.246a1.5 1.5 0 0 0-.517-.603m-.838 16.757c-3.291-.225-3.365-.938-3.587-2.908-.07-2.816 2.15-7.153 3.604-9.697 1.455 2.544 3.641 6.883 3.573 9.697-.222 1.97-.299 2.684-3.59 2.908" />
    </symbol>
  </defs>
</svg>