<svg xmlns="http://www.w3.org/2000/svg" xml:space="preserve" width="213" height="203.492"><g fill="#231F20"><path d="M213 96.645c.182-40.778-26.801-66.287-63.132-76.109-3.863-1.074-7.744-1.448-11.561-1.448-7.224.038-14.308 1.272-21.248 2.12a27 27 0 0 0 4.134-2.232c2.64-1.744 6.071-2.309 9.068-2.3 3.556-.006 6.256.763 6.27.731a2.5 2.5 0 0 0 1.307-4.825c-.132-.034-3.328-.904-7.577-.907-3.561.009-7.939.603-11.806 3.118-3.313 2.161-6.104 2.892-8.006 3.119-.567-1.847-1.047-4.186-1.044-6.749 0-1.569.175-3.222.607-4.929a4.996 4.996 0 0 0-3.613-6.077 4.996 4.996 0 0 0-6.077 3.613 30 30 0 0 0-.918 7.393c.009 1.964.199 3.785.485 5.455-4.099-.859-9.05-2.182-11.744-3.909-2.511-1.552-5.277-2.013-7.77-2.016-5.193.023-9.509 1.94-9.676 1.995a2.5 2.5 0 0 0-1.298 3.288 2.5 2.5 0 0 0 3.288 1.301c.003-.018 3.771-1.606 7.687-1.583 1.883-.003 3.693.362 5.136 1.264 3.632 2.194 8.921 3.641 13.218 4.538-7.523-.959-15.372-2.978-23.593-3.044-2.81 0-5.674.262-8.547.964C28.32 28.46-.198 54.304.001 96.645c.03 51.759 41.563 92.2 94.371 97.7l-2.016 1.765a2.49 2.49 0 0 0-.495 3.173c.627 1.042 1.903 1.479 3.037 1.042l11.607-4.465 5.87 5.029a2.5 2.5 0 0 0 2.122.552 2.52 2.52 0 0 0 1.742-1.332l1.851-3.702 12.736 6.791a2.5 2.5 0 0 0 3.109-.619 2.5 2.5 0 0 0 .002-3.17l-5.348-6.534c47.976-9.233 84.383-47.772 84.411-96.23m-106.498 88.347c-53.681-.069-96.405-38.829-96.503-88.348.199-37.41 23.361-58.52 58.96-67.514 1.943-.475 3.987-.679 6.175-.679 8.524-.093 19.012 3.463 30.867 3.538 12.12-.047 23.076-2.957 32.306-2.902 3.169 0 6.115.312 8.884 1.083 33.682 9.638 55.629 30.503 55.811 66.474-.098 49.519-42.822 88.279-96.5 88.348"/><path d="M188.188 94.995a1 1 0 0 0-1.171.795 91 91 0 0 1-5.119 17.246 1 1 0 1 0 1.851.757 92.7 92.7 0 0 0 5.233-17.629 1 1 0 0 0-.794-1.169M176.146 126.63a1 1 0 0 0-1.376.316c-13.162 21.053-34.658 36.553-59.982 42.063a1 1 0 0 0 .426 1.954c25.857-5.628 47.805-21.446 61.252-42.954a1.004 1.004 0 0 0-.32-1.379"/></g></svg>