<svg xmlns="http://www.w3.org/2000/svg" xml:space="preserve" width="279.659" height="97.137"><g fill="#231F20"><path d="M278.126 22.326a5.18 5.18 0 0 0-3.616-1.472c-3.405.43-3.146 1.129-4.508 1.812-5.562 4.396-49.037 16.814-88.6 22.149-8.746 1.221-17.022 1.765-24.801 1.765-27.219.006-48.393-6.671-61.972-14.144-14.41-7.856-24.725-12.338-34.176-12.427-2.876-.003-5.662.469-8.25 1.462-3.2 1.354-6.13 3.44-8.7 6.003-.824-.729-1.713-1.517-2.648-2.49C29.487 15.138 7.855.906 7.763.834L7.8.859 7.791.854A4.994 4.994 0 0 0 .854 2.209a5 5 0 0 0 1.355 6.94l.009.006.038.023c.02.015 9.566 6.313 19.098 13.266 4.759 3.472 9.515 7.11 12.946 10.09 1.284 1.113 2.384 2.143 3.192 2.979-2.713 4.941-4.346 10.54-4.502 16.036q0 .512.02 1.021c.734 8.443 7.741 16.165 20.624 24.059 13.015 7.727 32.51 14.903 59.717 18.962a142 142 0 0 0 20.938 1.546c46.038-.028 83.666-21.858 104.604-34.208 10.591-6.271 20.373-14.146 27.61-20.75 3.619-3.306 6.589-6.285 8.731-8.64 1.074-1.184 1.935-2.199 2.62-3.115.622-1.261 1.339-.9 1.805-4.425.022-.834-.26-2.424-1.533-3.673m-44.324 31.992c-20.719 12.283-56.692 32.847-99.514 32.817-6.339 0-12.833-.445-19.463-1.434-26.183-3.897-44.512-10.783-56.082-17.67-11.699-6.719-16.038-14.163-15.741-15.888a13 13 0 0 1-.011-.596c-.164-3.516 1.37-7.854 3.615-11.67a4.98 4.98 0 0 0 1.88-2.847c2.3-3.114 4.97-5.52 7.29-6.22 1.376-.523 2.864-.803 4.678-.806 5.907-.09 15.442 3.475 29.358 11.192 15.186 8.343 37.925 15.373 66.791 15.379 8.245 0 16.985-.576 26.183-1.86 26.671-3.857 53.442-9.805 71.831-15.425-6.096 5.188-13.402 10.739-20.815 15.028"/><path d="M67.025 61.006a109.6 109.6 0 0 1-14.221-9.843 1 1 0 1 0-1.264 1.552 112 112 0 0 0 14.48 10.018 1 1 0 0 0 1.368-.359 1 1 0 0 0-.363-1.368M136.119 75.379a111.917 111.917 0 0 1-57.438-8.483 1.001 1.001 0 0 0-.797 1.836v-.003a113.9 113.9 0 0 0 45.312 9.396c4.361 0 8.752-.251 13.153-.761a1 1 0 0 0-.23-1.985"/></g></svg>