<svg xmlns="http://www.w3.org/2000/svg" xml:space="preserve" width="190.587" height="209.443"><g fill="#231F20"><path d="M163.973 18.681c-4.444-.878-8.476-1.284-12.143-1.284-14.058-.151-22.821 6.465-26.973 13.405-4.488-6.633-13.311-12.887-27.143-12.758l-.144.001c.825-11.889 6.789-12.679 11.779-13.044 2.761-.006 4.813.659 4.83.621A2.5 2.5 0 1 0 115.63.838c-.149-.04-2.752-.832-6.281-.838-3.282.003-7.522.699-11.034 3.745-3.288 2.845-5.535 7.574-5.805 14.548-15.089 1.375-23.545 8.635-28.176 15.361-4.221-7.402-12.071-15.559-26.305-15.875-3.766 0-7.856.622-12.28 1.961C6.028 26.209.095 49.337 0 75.283c.02 27.597 7.11 60.271 17.67 86.508 10.882 25.906 23.762 46.723 42.021 47.652 3.667.012 7.364-1.091 10.7-3.181l.688-.513c2.03-1.937 3.604-4.203 4.831-6.498 2.687 4.199 6.788 8.49 13.532 8.706 8.45.196 14.653-3.132 17.59-8.037.4-.65.748-1.3 1.068-1.946 3.205 4.857 7.905 9.336 15.221 10.813l-.001.005c.023.005.048.006.071.011q.047.012.096.021l.001-.006c1.252.247 2.517.377 3.773.377 18.839-.947 32.573-22.76 44.244-49.748 11.328-27.312 19.055-61.077 19.08-88.823-.006-25.081-6.279-47.447-26.612-51.943m-1.702 136.929c-10.517 26.384-25.944 44.532-35.009 43.585a9.3 9.3 0 0 1-1.912-.196l-.167-.031c-6.422-.809-10.582-8.737-13.161-15.666a5.01 5.01 0 0 0-4.649-3.188 5.01 5.01 0 0 0-4.664 3.167c-1.865 4.942-2.665 9.181-4.104 11.256-1.402 1.889-2.479 3.225-9.161 3.42-1.543.265-4.314-2.147-6.339-6.212-1.983-3.823-2.896-7.796-2.945-7.793a5.006 5.006 0 0 0-5.061-3.835 5.004 5.004 0 0 0-4.741 4.224c0 .006-.403 2.573-1.451 5.766-.94 3.021-2.612 6.363-4.199 7.9-1.803 1.03-3.39 1.429-5.016 1.436-8.513.934-22.979-16.092-32.749-41.391-10.093-24.974-16.965-56.879-16.942-82.769-.096-25.06 6.667-42.845 18.648-45.972 3.613-1.094 6.717-1.531 9.382-1.531 16.888-.581 20.98 19.648 21.032 19.662a4.995 4.995 0 0 0 5.001 4.085 5 5 0 0 0 4.859-4.252c0-.003.112-.869.76-2.643 2.226-5.372 7.419-16.072 27.384-16.585l-.057-3.486h.001l.058 3.486q.32-.004.646-.003c11.776.139 16.495 4.716 19.475 9.339 1.428 2.344 2.231 4.782 2.648 6.599.421 1.816.403 2.755.446 2.758.007.162.046.314.067.473.023.166.031.336.072.499a5 5 0 0 0 5.068 3.813 5 5 0 0 0 4.727-4.224c.041-.261.047-.526.047-.791h.014c.458-.495-.625-19.095 21.551-19.112 2.928 0 6.313.325 10.202 1.094 11.927 1.874 18.565 17.791 18.554 42.134.026 25.905-7.456 58.926-18.315 84.984"/><path d="M163.296 117.602a1 1 0 0 0-1.085.907c-2.107 23.234-11.541 41.123-28.284 62.228a1 1 0 0 0 1.566 1.244c16.852-21.22 26.574-39.584 28.71-63.294a1 1 0 0 0-.907-1.085M166.642 83.638c-.547.075-.93.579-.858 1.126.395 2.916.567 5.436.567 7.695 0 4.143-.578 7.406-1.482 10.686a.999.999 0 1 0 1.928.532c.938-3.396 1.555-6.889 1.555-11.218 0-2.364-.182-4.975-.585-7.963a1 1 0 0 0-1.125-.858"/></g></svg>