<svg xmlns="http://www.w3.org/2000/svg" xml:space="preserve" width="189.352" height="224.728"><g fill="#231F20"><path d="M112.325 9.88a35 35 0 0 1-.443-.726c-1.333-2.66-6.25-9.538-15.879-9.138-6.599-.224-11.229 3.633-13.123 6.478-2.171 3.083-2.605 3.388-2.715 3.308C35.625 17.856.435 74.67 0 117.8c.1 44.365 32.392 89.33 78.303 96.097 1.093 2.27 5.279 11.255 16.323 10.815q.298.001.604-.006c6.705.041 11.374-3.043 13.539-5.755 2.38-2.826 2.458-3.057 3.209-3.172 43.294-8.767 77.123-55.086 77.373-97.979-.291-43.868-30.35-101.003-77.026-107.92m-2.26 196.086c-5.395 1.085-7.598 5.141-8.792 6.367-1.417 1.345-1.624 2.079-6.267 2.375-.129.003-.253.006-.38.006-4.514-.241-4.629-1.103-5.957-2.772-1.434-1.289-1.114-5.904-7.937-7.796C40.296 199.174 9.902 157.859 10 117.8c-.434-38.121 34.699-92.663 71.798-98.133 5.81-1.122 7.732-5.604 9.057-7.139 1.601-1.771 1.549-2.289 5.147-2.511 4.563.21 4.842 1.094 6.198 2.608 1.327 1.172 1.906 5.656 8.21 7.073 38.973 4.134 69.235 58.002 68.941 98.101.251 37.756-31.853 81.191-69.286 88.167"/><path d="M159.6 152.132a1 1 0 0 0-1.356.4c-10.441 19.256-28.529 34.076-50.526 40.309a.998.998 0 1 0 .545 1.922c22.523-6.382 41.043-21.55 51.74-41.275a1.003 1.003 0 0 0-.403-1.356M168.449 123.565a.997.997 0 0 0-1.117.864 80.2 80.2 0 0 1-3.57 15.468 1 1 0 0 0 1.894.639 82 82 0 0 0 3.659-15.854 1 1 0 0 0-.866-1.117"/></g></svg>