<svg xmlns="http://www.w3.org/2000/svg" xml:space="preserve" width="144.685" height="194.258"><g fill="#231F20"><path d="M112.488 24.81c-.419-.139-2.538-.883-4.213-1.406-1.305-.466-2.847-.957-4.662-1.663-3.1-.952-6.601-1.824-10.104-2.521-.078.043-.607-.411-1.402-1.868-.832-1.206-1.69-3.501-4.765-4.024h.003a5 5 0 0 0-.486-.026c-4.215.248-11.737 5.065-12.386 5.009L73.78 2.393a2.5 2.5 0 1 0-4.995.218l.638 14.666c-2.551-.85-9.299-3.061-12.907-3.137q-.147-.002-.314.006h.009c-3.104-.236-4.382 3.541-4.361 4.076l.008.207c-.003 0 .009.104-.582.059-3.814.348-7.499.8-10.378 1.425-2.257.852-4.502.555-5.787 2.985C16.633 28.06-.426 43.934.008 78.15c0 9.809 1.261 21.153 4.027 34.355 10.58 49.507 29.835 81.016 57.59 81.752 25.59-.576 50.019-27.582 73.317-84.219 6.74-16.564 9.733-30.195 9.739-41.613.26-24.745-15.121-38.307-32.193-43.615m-60.759-1.342c3.101.093 5.133-3.037 5.023-4.264l.013-.064c2.244.09 8.846 2.173 11.197 2.927l2.01 3.351a2.495 2.495 0 0 0 4.497-2.101c.09-.008.194-.016.331-.021 3.331-.591 10.589-5.169 12.019-4.993l.003.117c.985.656 1.494 4.447 5.711 5.706 3.345.664 6.702 1.499 9.609 2.395 1.718.527 3.111 1.023 4.196 1.468a44 44 0 0 1-5.935.317c-.53 0-1.077-.006-1.633-.018-4.709-.095-7.038-.392-8.486-.403-.346.009-.645-.009-1.224.15-.463 0-2.029 1.062-1.96 2.556.858 3.222 1.448 2.188 2.456 3.766.996 1.1 2.306 2.703 3.65 5.13 1.022 1.837 1.367 3.403 1.364 4.479.003.757-.174 1.239-.291 1.437-.263-.135-.828-.626-1.603-2.352-2.985-5.901-7.079-11.85-12.877-12.324-2.775-.069-5.086 2.223-5.904 5.106-1.151 3.524-2.237 7.938-3.391 11.372-.567 1.704-1.169 3.169-1.675 4.013l-.042.067c-.698-1.094-1.076-2.877-1.063-5.014-.017-3.964 1.143-8.328 1.192-11.25-.003-.763-.15-3.606-3.173-3.892-1.223.046-1.854.495-2.533.93-1.798 1.354-6.798 3.583-11.017 5.148 3.524-2.804 7.136-5.135 7.136-5.146a2.505 2.505 0 0 0 1.065-2.758 2.505 2.505 0 0 0-2.306-1.849c-.052.057-10.553-.591-16.315-2.639.366-.077.752-.152 1.175-.217 2.412-.459 5.542-.836 8.781-1.13m73.953 82.8c-22.547 55.933-46.927 78.568-64.056 77.992-18.165.737-37.79-25.111-47.802-73.807-2.66-12.669-3.817-23.353-3.817-32.303.458-32.789 14.057-41.863 30.423-46.276.594-.144 2.278-.591 5.015-.917 1.889.393 3.773.678 5.487.888-2.464 1.859-5.243 4.156-7.286 6.429-.533.686-1.146 1.203-1.247 2.738.228 2.749 2.838 2.977 3.443 2.979 4.105-.179 12.529-3.544 17.792-6.4-.349 2.291-.898 5.541-.911 8.68.017 2.917.438 6.025 2.467 8.56.815 1.004 1.998 1.957 3.63 1.975 4.592-.832 4.879-4.479 6.425-8.012 1.244-3.723 2.335-8.156 3.403-11.406.751-1.899.961-1.592 1.151-1.661 1.08-.472 6.221 4.252 8.334 9.417 1.442 3.077 3.429 5.208 6.31 5.309 3.524-.118 5.122-3.44 5.125-6.486-.003-2.093-.625-4.441-1.989-6.903a32.6 32.6 0 0 0-2.53-3.902c1.049.051 2.244.097 3.621.125q.886.018 1.733.018a70 70 0 0 0 3.305-.076c2.71.37 5.115.905 5.64 1.078 14.716 5.199 25.074 13.654 25.333 34.122.008 9.635-2.582 22.094-8.999 37.839"/><path d="M87.498 132.942a3.911 3.911 0 1 0-.004 7.822 3.911 3.911 0 0 0 .004-7.822m0 5.822a1.91 1.91 0 1 1-.003-3.821 1.91 1.91 0 0 1 .003 3.821M51.746 128.783a3.91 3.91 0 0 0-3.909 3.909 3.91 3.91 0 1 0 7.819 0 3.91 3.91 0 0 0-3.91-3.909m0 5.821a1.914 1.914 0 0 1-1.912-1.911 1.92 1.92 0 0 1 1.912-1.912 1.912 1.912 0 0 1 0 3.823M50.666 61.983a3.077 3.077 0 1 0-6.155 0 3.077 3.077 0 0 0 6.155 0m-3.077 1.08a1.083 1.083 0 0 1-1.08-1.079 1.086 1.086 0 0 1 1.08-1.082 1.084 1.084 0 0 1 1.08 1.082 1.084 1.084 0 0 1-1.08 1.079M28.05 83.027a3.497 3.497 0 0 0 0 6.992 3.496 3.496 0 0 0 0-6.992m0 4.993a1.5 1.5 0 0 1-1.494-1.497 1.494 1.494 0 0 1 2.988 0c0 .826-.67 1.494-1.494 1.497M80.427 68.052a3.497 3.497 0 0 0 0 6.993 3.497 3.497 0 0 0 0-6.993m0 4.992a1.495 1.495 0 1 1 .003-2.99 1.495 1.495 0 0 1-.003 2.99M98.305 89.684a3.078 3.078 0 1 0 0 6.157 3.075 3.075 0 0 0 3.077-3.077 3.077 3.077 0 0 0-3.077-3.08m0 4.159a1.082 1.082 0 0 1 0-2.162 1.082 1.082 0 0 1 0 2.162M60.644 96.506a3.495 3.495 0 1 0-6.99 0 3.495 3.495 0 0 0 6.99 0m-3.495 1.497c-.824-.003-1.494-.671-1.494-1.497a1.494 1.494 0 0 1 2.988 0c0 .826-.67 1.494-1.494 1.497M61.724 158.73a3.91 3.91 0 1 0 0 7.822 3.91 3.91 0 0 0 3.909-3.912 3.91 3.91 0 0 0-3.909-3.91m0 5.822a1.91 1.91 0 0 1-1.912-1.911 1.916 1.916 0 0 1 1.912-1.912 1.916 1.916 0 0 1 1.909 1.912 1.914 1.914 0 0 1-1.909 1.911M118.775 63.837a1 1 0 0 0-.674 1.244 46.7 46.7 0 0 1 1.915 13.254 47.2 47.2 0 0 1-5.997 23.024 1.003 1.003 0 0 0 .386 1.361 1.003 1.003 0 0 0 1.362-.386 49.26 49.26 0 0 0 6.25-24c0-4.678-.668-9.339-1.998-13.824a1 1 0 0 0-1.244-.673M116.599 58.284a1 1 0 0 0 .452-1.339 47 47 0 0 0-4.957-7.937.999.999 0 1 0-1.581 1.22 45 45 0 0 1 4.747 7.6 1 1 0 0 0 1.339.456"/></g></svg>