<svg xmlns="http://www.w3.org/2000/svg" xml:space="preserve" width="161.042" height="204.08"><g fill="#231F20"><path d="M140.113 103.162c-11.472-20.5-24.89-34.52-35.938-43.444-9.501-7.308-15.732-11.137-20.521-12.612L68.521 24.547c4.848-8.369 11.407-14.721 19.395-14.546A5 5 0 1 0 87.915 0C71.976.202 62.628 13.28 57.184 24.625c-4.617 9.678-6.827 19.071-7.465 22.048q-.153.106-.339.213c-8.276 7.076-32.473 34.082-41.947 67.542C2.734 131.299.009 149.804 0 165.554c.38 18.303 2.631 34.724 16.813 38.331.794.132 1.592.195 2.383.195 12.293-.708 19.864-12.422 27.124-26.7 7.053-14.575 12.782-33.074 16.205-50.203 2.827-14.176 3.854-26.937 3.854-37.88 0-12.724-1.388-22.978-2.977-30.212-.798-3.625-1.639-6.48-2.436-8.608-.405-1.07-.781-1.943-1.241-2.771.569-2.47 1.8-7.235 3.84-12.593l11.362 16.933c-.657 3.187-1.104 8.495-1.121 15.785.02 16.223 2.455 41.23 12.873 63.711 7.267 15.617 17.02 31.218 27.075 43.158 10.223 11.792 20.002 20.598 30.884 20.998 2.514.009 5.096-.625 7.353-1.966 7.212-4.52 8.979-12.972 9.051-22.185-.081-19.466-8.93-46.812-20.929-68.385m-87.397 22.06c-3.253 16.36-8.847 34.304-15.396 47.797-6.336 13.789-14.642 21.772-18.125 21.063q-.365 0-.729-.06c-1.762-.236-3.883-1.979-5.743-7.184-1.772-5.04-2.737-12.594-2.723-21.285-.009-14.599 2.597-32.45 7.064-48.438 4.821-17.345 14.538-33.518 23.332-45.217 4.391-5.85 8.548-10.594 11.674-13.801.221-.227.424-.428.635-.64 1.68 6.13 3.71 17.305 3.672 31.839.001 10.319-.969 22.425-3.661 35.926m94.194 59.899c-.671.383-1.315.566-2.271.575-4.197.4-14.054-6.209-23.237-17.442-9.354-11.083-18.775-26.113-25.653-40.931-9.509-20.385-11.962-44.284-11.942-59.493 0-3.837.154-7.114.369-9.608 9.23 4.906 30.693 19.999 47.212 49.825 11.308 20.074 19.737 46.987 19.656 63.5.069 8.058-2.139 12.661-4.134 13.574"/><path d="M41.676 86.468c-5.771.011-10.47 4.651-10.473 10.421.003 5.77 4.701 10.413 10.473 10.424 5.772-.011 10.471-4.654 10.474-10.424-.004-5.77-4.702-10.41-10.474-10.421m0 15.845c-3.034 0-5.467-2.441-5.473-5.424.006-2.979 2.438-5.421 5.473-5.421s5.467 2.441 5.473 5.421c-.006 2.982-2.439 5.424-5.473 5.424M33.305 114.193c-7.753.014-14.058 6.25-14.061 13.988.003 7.734 6.308 13.971 14.061 13.984 7.756-.014 14.057-6.25 14.06-13.984-.004-7.738-6.304-13.974-14.06-13.988m0 22.973c-5.016 0-9.051-4.036-9.06-8.984.009-4.952 4.044-8.988 9.06-8.988 5.015 0 9.051 4.036 9.06 8.988-.01 4.948-4.046 8.984-9.06 8.984M24.933 152.216c-5.771.012-10.467 4.655-10.473 10.425.006 5.769 4.701 10.409 10.473 10.421 5.772-.012 10.471-4.652 10.474-10.421-.004-5.77-4.702-10.413-10.474-10.425m0 15.845c-3.034 0-5.467-2.44-5.472-5.42.005-2.982 2.438-5.424 5.472-5.424s5.468 2.441 5.473 5.424c-.006 2.979-2.439 5.42-5.473 5.42M113.536 93.723c-.003-6.645-5.415-11.996-12.067-12.008-6.653.012-12.063 5.363-12.065 12.008.003 6.644 5.412 11.993 12.065 12.004 6.652-.011 12.064-5.361 12.067-12.004m-12.067 7.004c-3.915 0-7.059-3.15-7.067-7.004.009-3.858 3.152-7.008 7.067-7.008s7.062 3.149 7.067 7.008c-.006 3.853-3.152 7.004-7.067 7.004M131.074 123.822c-.003-7.957-6.483-14.367-14.457-14.382-7.975.015-14.455 6.425-14.458 14.382.003 7.957 6.483 14.368 14.458 14.383 7.974-.015 14.454-6.426 14.457-14.383m-14.457 9.383c-5.237 0-9.449-4.212-9.46-9.383.011-5.167 4.223-9.382 9.46-9.382 5.236 0 9.447 4.215 9.459 9.382-.012 5.171-4.222 9.383-9.459 9.383M122.09 155.907c.002 6.425 5.236 11.596 11.667 11.606 6.435-.011 11.665-5.182 11.668-11.606-.003-6.426-5.233-11.599-11.668-11.61-6.431.012-11.665 5.184-11.667 11.61m11.667-6.61c3.693 0 6.661 2.971 6.667 6.61-.006 3.636-2.974 6.609-6.667 6.609s-6.661-2.974-6.667-6.609c.006-3.639 2.973-6.61 6.667-6.61"/><path d="M121.922 122.95q.073.438.072.878c0 1.16-.377 2.323-1.16 3.308a5.36 5.36 0 0 1-2.663 1.797 1 1 0 0 0 .573 1.917 7.35 7.35 0 0 0 3.653-2.467 7.3 7.3 0 0 0 1.497-5.761.996.996 0 0 0-1.148-.82.997.997 0 0 0-.824 1.148M121.211 121.048a1 1 0 1 0 1.707-1.045 7.4 7.4 0 0 0-1.721-1.933 1 1 0 0 0-1.405.168 1.003 1.003 0 0 0 .167 1.404c.516.407.933.881 1.252 1.406M38.285 122.032c-.436-.343-1.063-.268-1.405.167s-.268 1.063.167 1.404c.516.406.933.881 1.252 1.405a1 1 0 1 0 1.705-1.045 7.3 7.3 0 0 0-1.719-1.931M39.01 126.912q.071.436.072.877a5.3 5.3 0 0 1-1.163 3.309 5.35 5.35 0 0 1-2.659 1.796 1.001 1.001 0 1 0 .572 1.917 7.36 7.36 0 0 0 3.65-2.467 7.27 7.27 0 0 0 1.598-4.555 7 7 0 0 0-.098-1.206 1 1 0 0 0-1.972.329"/></g></svg>