<svg xmlns="http://www.w3.org/2000/svg" xml:space="preserve" width="166.44" height="176.664"><g fill="#231F20"><path d="M125.144 65.094c-11.193-7.281-33.365-15.497-32.15-26.31.003-2.021.544-4.451 2.11-7.491 12.174-23.571 10.263-18.205 13.095-24.192a5.01 5.01 0 0 0-1.287-5.899 5.01 5.01 0 0 0-6.025-.365c-.237.165-.449.342-.68.51a2.48 2.48 0 0 0-2.069.547c-2.182 1.888-3.989 4.101-5.489 6.536-6.454 7.546-10.636 16.351-19.306 23.826-15.537 13.797-28.229 28.468-42.454 39.43C15.758 83.521.717 99.319.011 118.44q-.011.382-.011.766c.257 15.06 10.411 24.683 14.95 28.331.774 5.813 5.982 18.941 26.83 23.041 3.02.639 6.181.854 9.324.857 8.351-.015 16.695-1.562 20.358-2.329 4.232 2.248 15.33 7.486 28.282 7.558 4.154 0 8.513-.57 12.833-2.044 16.689-5.792 24.965-18.395 27.628-23.178 6.027-2.509 23.891-11.36 26.082-32.176.101-1.184.152-2.353.152-3.498-.457-29.997-32.241-43.521-41.295-50.674M10.001 119.206q0-.257.006-.513c.109-13.378 12.609-28.114 27-39.094 11.81-9.149 22.103-20.056 33.048-30.63C65.125 62.965 48.499 77.793 32.798 91c-11.993 10.147-15.004 23.738-14.976 35.817 0 3.631.266 7.144.631 10.446a36 36 0 0 1-2.171-2.392c-3.282-3.945-6.298-9.349-6.281-15.665m4.89 25.478-.002.008.003-.022zm28.962 16.112c-19.792-4.568-18.548-14.469-18.983-15.453h-.003a4.96 4.96 0 0 0-.701-2.892c-.692-4.767-1.345-10.125-1.343-15.634.026-11.371 2.684-23.062 13.208-32.006 17.201-14.702 36.428-30.982 40.047-49.023.197-1.1.492-2.202.852-3.3q.36-.33.723-.657c-1.367 10.884-.557 23.791-6.675 34.452-7.614 13.576-16.504 33.42-16.547 51.093 0 2.023.121 4.021.377 5.979 1.764 13.984 7.305 20.909 12.729 26.342-3.878.734-10.371 1.75-16.431 1.737-2.662.004-5.198-.201-7.253-.638m83.029-7.71c-3.713 4.336-9.428 9.302-17.534 12.068-3.115 1.065-6.359 1.509-9.604 1.509-12.788.086-24.833-7.243-24.933-7.12-.154-.093-.32-.155-.481-.23-6.448-6.322-12.409-11.054-14.566-26.611a41 41 0 0 1-.334-5.325c-.043-15.997 8.466-35.495 15.905-48.64 7.546-13.621 5.86-29.287 7.706-39.475.386 5.214 2.276 9.529 5.037 13.156a63 63 0 0 0 1.36 5.3c5.205 16 23.022 22.688 36.59 36.051 7.162 6.829 10.053 19.668 10.015 31.472.018 7.048-1.015 13.732-2.42 18.291a4.96 4.96 0 0 0-1.541 1.895c0 .008-1.495 3.339-5.2 7.659m29.442-34.684c-.751 8.66-5.777 14.587-11.071 18.666a39.3 39.3 0 0 1-5.746 3.647c.961-4.519 1.522-9.843 1.537-15.476-.041-12.515-2.772-26.485-11.538-35.064-13.387-12.735-28.593-19.779-33.993-30.625 8.802 6.496 19.677 10.031 23.675 13.577 11.587 8.149 37.712 21.062 37.251 42.641 0 .859-.037 1.734-.115 2.634"/><path d="M120.152 104.956a1.003 1.003 0 0 0-.242 1.394 31.3 31.3 0 0 1 5.464 13.875 1 1 0 0 0 1.98-.271 33.3 33.3 0 0 0-5.81-14.757 1 1 0 0 0-1.392-.241M126.151 130.341a1 1 0 0 0-1.186.769c-3.037 14.219-15.675 24.891-30.806 24.888a1 1 0 0 0 0 2.001c16.092-.003 29.53-11.34 32.763-26.471a1 1 0 0 0-.771-1.187"/></g></svg>