<svg xmlns="http://www.w3.org/2000/svg" xml:space="preserve" width="188.938" height="269.756"><g fill="#231F20"><path d="M175.995 131.004c-8.006-13.306-18.545-20.791-26.81-25.69-4.125-2.447-7.721-4.307-10.013-5.792-1.143-.731-1.938-1.37-2.28-1.739l-.127.043-.121-.553c-4.341-15.551-10.436-34.586-10.445-34.615a4.99 4.99 0 0 0-4.726-3.47c-.817-8.975-1.937-17.705-1.93-25.274 0-3.169.193-6.126.662-8.792.204-1.168-.443-2.323-1.546-2.758s-2.363-.032-3.011.959c-2.514 3.953-8.398 13.919-13.051 24.889.117-2.894.188-5.893.189-8.929-.063-14.356-1.396-29.381-7.548-38.23A2.49 2.49 0 0 0 93.091.002a2.49 2.49 0 0 0-2.047 1.235c-5.173 8.91-6.598 21.268-6.624 33.368.001 4.987.261 9.931.649 14.556-4.574-12.016-11.231-23.834-17.758-26.817a2.49 2.49 0 0 0-2.383.357 2.49 2.49 0 0 0-.976 2.205c.979 11.138 1.409 23.063 2.267 34.406a4.98 4.98 0 0 0-3.692 3.346c-.009.032-6.1 19.066-10.424 34.618l-.121.553-.129-.041c-2.862 3.88-25.195 10.214-38.956 33.224C4.284 145.353 0 161.54 0 177.724c-.002 23.552 9.083 47.164 27.107 65.113 17.73 17.667 40.959 26.922 64.298 26.919h5.809c23.416.003 46.723-9.247 64.52-26.914 18.085-17.947 27.21-41.561 27.205-65.119-.001-16.186-4.302-32.376-12.944-46.719m-59.257-68.481c-.033.092-.076.179-.104.274l-7.765 26.926-7.347-21.485c1.608-10.233 8.02-23.917 13.046-33.202.115 8.613 1.403 18.093 2.17 27.487M93.353 7.943c3.261 7.621 4.487 19.714 4.435 31.341.001 7.05-.39 13.929-.861 19.666a5.03 5.03 0 0 0-2.584-.6 5.03 5.03 0 0 0-3.143.906c-.932-6.987-1.78-15.781-1.778-24.65-.02-9.678 1.06-19.388 3.931-26.663m-7.456 63.866L79.8 89.671l-7.704-26.868a5 5 0 0 0-.7-1.473c-.822-10.028-1.259-20.754-2.009-31.143 6.906 8.624 16.481 32.363 16.51 41.622m68.792 163.938c-15.935 15.81-36.685 24.006-57.476 24.009h-5.809c-20.702-.003-41.371-8.193-57.242-24.003C18.075 219.724 10.006 198.726 10 177.725c0-14.425 3.814-28.819 11.469-41.563 6.854-11.392 15.632-17.693 23.261-22.256 7.229-4.948 14.155-5.822 16.936-13.968l.069.02c1.667-5.995 3.612-12.55 5.361-18.31l7.484 26.098a4.99 4.99 0 0 0 4.684 3.619 4.99 4.99 0 0 0 4.854-3.383l10.204-29.896 10.224 29.899a4.99 4.99 0 0 0 4.854 3.38 4.99 4.99 0 0 0 4.681-3.613l7.541-26.153c1.756 5.772 3.712 12.351 5.391 18.363l.07-.02c2.794 8.153 9.734 9.014 16.995 13.971 7.657 4.563 16.472 10.867 23.353 22.258 7.678 12.742 11.506 27.133 11.506 41.555-.005 20.993-8.101 41.988-24.248 58.021"/><path d="M166.498 177.592a1 1 0 0 0-1.169.797 87 87 0 0 1-4.845 16.447 1 1 0 0 0 .55 1.301 1 1 0 0 0 1.304-.55c2.18-5.372 3.849-11 4.958-16.827a1 1 0 0 0-.798-1.168M155.115 207.779a1 1 0 0 0-1.376.323c-12.454 20.074-32.792 34.85-56.752 40.101a1 1 0 1 0 .429 1.955c24.496-5.372 45.289-20.474 58.022-41.003a1 1 0 0 0-.323-1.376"/></g></svg>