<svg xmlns="http://www.w3.org/2000/svg" xml:space="preserve" width="201.78" height="242.38"><g fill="#231F20"><path d="M129.177 42.183c-3.209-.711-6.131-1.025-8.786-1.025-4.361-.02-7.992.882-10.896 2.102 2.178-7.316 4.459-17.688 4.692-29.582a5 5 0 0 0-4.908-5.093 5 5 0 0 0-5.089 4.908c-.213 12.413-3.008 23.077-5.198 29.676a21.8 21.8 0 0 0-4.328-2.166 1234 1234 0 0 1-4.431-9.108C82.866 16.405 83.83 5.015 60.875.063a2.5 2.5 0 0 0-2.059.44 2.52 2.52 0 0 0-.993 1.857 95 95 0 0 0-.155 5.322c-.305 19.645 7.7 30.031 21.121 32.889C33.332 49.678.012 91.101 0 139.203c.009 50.862 37.499 92.95 86.353 100.018a11.5 11.5 0 0 0 1.678.118q.592-.042 1.159-.116a2.5 2.5 0 0 0 1.369 1.976 2.5 2.5 0 0 0 3.112-.742l2.367-3.162q.424-.178.814-.351l1.753 3.953a2.49 2.49 0 0 0 2.36 1.482 2.49 2.49 0 0 0 2.266-1.621l1.497-4.001 4.655 4.082a2.5 2.5 0 0 0 2.95.253 2.49 2.49 0 0 0 1.179-2.41c.821.117 1.675.2 2.561.237.855 0 1.745-.069 2.651-.23 47.235-8.443 83.044-49.774 83.056-99.485-.017-45.682-29.522-87.43-72.603-97.021m-66.509-34.5c0-.644.014-1.31.03-1.979 17.605 4.942 14.901 11.762 23.032 28.363l1.569 3.241c-1.572-.523-3.351-.955-5.372-1.254-12.749-2.35-18.936-8.658-19.259-28.371m54.297 221.16a5 5 0 0 1-.893.075c-2.827.291-7.986-3-15.183-3.273-7.007.467-11.392 4.188-12.86 3.696q-.145 0-.247-.018C43.82 222.967 9.988 185.039 10 139.203c-.011-43.731 30.557-81.227 71.49-88.986 1.897-.359 3.53-.507 4.934-.507 4.831.061 6.961 1.506 8.688 2.994.351.32.665.647.968.98.372 1.376 1.305 2.59 2.697 3.237.091.042.186.06.278.097.681.491 1.762.964 3.677 1.282 5.939-1.157 5.32-3.152 8.012-4.407 2.133-1.382 4.825-2.704 9.647-2.735 1.865 0 4.056.219 6.63.789 37.784 8.251 64.775 45.764 64.758 87.256.012 44.8-32.305 82.043-74.814 89.64"/><path d="M179.369 137.136a1 1 0 0 0-1.025.977 83.5 83.5 0 0 1-2.029 16.478 1.001 1.001 0 0 0 1.952.44 86 86 0 0 0 2.079-16.872 1 1 0 0 0-.977-1.023M173.263 167.795a1 1 0 0 0-1.307.544c-8.755 21.165-25.93 38.551-48.099 47.423a.995.995 0 0 0-.555 1.298 1 1 0 0 0 1.298.559c22.676-9.076 40.243-26.853 49.205-48.516a1.006 1.006 0 0 0-.542-1.308"/></g></svg>