<svg xmlns="http://www.w3.org/2000/svg" xml:space="preserve" width="172.307" height="180.296"><g fill="#231F20"><path d="M86.153 0C38.38.035.086 40.542 0 90.149c.086 49.604 38.38 90.112 86.153 90.146 47.773-.034 86.067-40.542 86.153-90.146C172.221 40.542 133.927.035 86.153 0m0 170.295c-41.869-.08-76.136-35.702-76.152-80.146.017-44.445 34.283-80.067 76.152-80.148 41.869.081 76.136 35.703 76.152 80.148-.016 44.444-34.283 80.066-76.152 80.146"/><path d="M55.797 87.492q.18.005.356.006c3.763.043 5.657-1.644 6.025-2.196a2.51 2.51 0 0 0 .089-2.939c-.184-.247-2.239-3.271-6.661-3.575h.003a14 14 0 0 0-.863-.025 18.8 18.8 0 0 0-5.952 1.026c-.042.012-.082.031-.125.045l-.133.048-.014.008a2.5 2.5 0 0 0-.979.681 2.5 2.5 0 0 0-.365.587l-.008.017a2.5 2.5 0 0 0-.188.6l-.001.003v.002c-.07.41-.037.829.096 1.225l.031.081q.09.236.227.454.03.05.063.1c.108.153.231.299.377.429q.01.012.019.021.002.001.005.003l.005.006.005.006c.031.027.068.046.102.071.624.496 3.64 3.112 7.886 3.316M56.202 69.097l.007.017.002.013.003.012c.006.022.02.04.027.062.199.621 1.004 3.827 3.902 6.05 1.73 1.258 3.299 1.661 4.396 1.652.6 0 1.039-.109 1.27-.19a2.5 2.5 0 0 0 1.682-2.383c-.018-.303-.023-3.4-2.988-5.764A14.7 14.7 0 0 0 59.44 66.1c-.069-.024-.142-.037-.213-.055l-.057-.016-.001.002a2.46 2.46 0 0 0-1.22.019 2.495 2.495 0 0 0-1.743 3.047zM103.285 72.197c.348-.014 3.411-.009 5.783-2.916a14.8 14.8 0 0 0 2.535-5.055c.021-.062.034-.125.051-.188l.017-.061q.001-.014.003-.025a2.5 2.5 0 0 0-.012-1.213 2.5 2.5 0 0 0-.267-.604l-.008-.013a2.4 2.4 0 0 0-.38-.489l-.008-.01-.006-.004a2.4 2.4 0 0 0-.501-.394 2.4 2.4 0 0 0-.565-.228q-.036-.01-.072-.017a2.5 2.5 0 0 0-.505-.073q-.065-.004-.13-.004-.264.001-.523.059c-.02.005-.039.002-.058.007l-.015.006q-.016.002-.031.005l-.009.003c-.035.01-.065.027-.1.038-.727.214-3.84 1.007-6.041 3.813-1.307 1.751-1.716 3.346-1.707 4.442-.003.564.098.979.173 1.203a2.5 2.5 0 0 0 2.376 1.718M93.348 65.352c.273-.146 3.549-1.768 4.465-6.105a16.7 16.7 0 0 0 .305-3.244 19 19 0 0 0-.348-3.661c-.007-.051-.021-.1-.031-.15l-.023-.104-.002-.006a2.5 2.5 0 0 0-.554-1.088 2.5 2.5 0 0 0-.512-.428l-.028-.018a2.5 2.5 0 0 0-.544-.258q-.011-.005-.021-.011-.008-.001-.014-.003a2.5 2.5 0 0 0-1.212-.073q-.05.012-.103.024-.239.055-.466.158c-.038.017-.075.031-.111.05a2.5 2.5 0 0 0-.489.323l-.01.007-.002.002-.018.013-.006.009c-.021.019-.037.042-.057.062-.541.516-3.599 3.157-4.397 7.371a13 13 0 0 0-.182 2.082c-.022 2.66 1.061 4.177 1.457 4.551a2.5 2.5 0 0 0 2.903.497M102.781 79.573a2.51 2.51 0 0 0 1.635 2.421c.185.063 1.377.492 3.164.495a10.3 10.3 0 0 0 5.436-1.534c3.301-2.058 5.324-4.806 5.868-5.581.033-.041.06-.087.09-.129q.042-.061.056-.079l-.003-.002c.228-.346.381-.739.417-1.155a2.53 2.53 0 0 0-.578-1.825 2.52 2.52 0 0 0-1.655-.874v-.005c-.069-.006-.671-.068-1.598-.068-1.935.025-5.306.195-8.329 2.153-3.919 2.533-4.537 5.48-4.503 6.183M119.029 89.396l-.009-.009q-.016-.009-.029-.017c-.238-.12-2.385-1.942-5.659-2.03q-.171 0-.349.009h.006c-2.882.095-4.442 1.54-4.778 2.142-.6.907-.547 2.087.129 2.937.202.233 1.849 2.309 5.142 2.357h.118a12.9 12.9 0 0 0 4.697-1.036c.039-.013.074-.033.112-.048l.168-.073-.001-.002c.354-.17.673-.411.914-.726a2.52 2.52 0 0 0 .494-1.849 2.5 2.5 0 0 0-.955-1.655M108.015 111.666c3.234 2.238 6.594 2.993 7.479 3.176.064.017.129.027.195.04l.024.005v-.002c.43.075.876.049 1.289-.102a2.5 2.5 0 0 0 1.411-1.292 2.5 2.5 0 0 0 .109-1.809l.009-.003a.4.4 0 0 1-.023-.056l-.012-.045-.002-.012c-.008-.021-.022-.037-.03-.057-.326-.909-1.799-5.396-5.788-8.116-2.335-1.528-4.307-1.98-5.674-1.975-.916 0-1.535.193-1.791.297a2.505 2.505 0 0 0-1.566 2.464c.032.301.251 4.536 4.37 7.487M98.098 112.903c-.271 0-.48.026-.622.052a2.5 2.5 0 0 0-2.013 2.11 5.5 5.5 0 0 0-.046.76 7.79 7.79 0 0 0 2.156 5.381c2.229 2.286 4.733 3.21 4.905 3.293l.001-.002c.352.136.73.203 1.11.172a2.53 2.53 0 0 0 1.699-.878 2.5 2.5 0 0 0 .581-1.825v-.009l-.006-.061c-.089-.213-.25-3.828-2.997-6.661-1.867-1.853-3.723-2.354-4.768-2.332M71.065 109.829c-.288.098-3.276.907-4.784 4.388-1.008 2.452-1.057 4.706-1.068 5.513 0 .148.004.237.005.279a2.5 2.5 0 0 0 .257 1.045c.031.063.075.117.112.177l.013.02q.162.26.383.474l.012.012c.266.253.579.453.929.567.049.017.101.021.15.033q.041.011.082.019.252.057.509.062.056.003.113.002c.19-.005.381-.026.565-.074l.021-.004q.242-.066.468-.178l.008-.003c.021-.011.038-.026.06-.038.018-.009.038-.013.056-.022.158-.17 3.409-1.759 4.912-5.409.457-1.218.639-2.283.639-3.179.009-1.393-.458-2.331-.697-2.671a2.49 2.49 0 0 0-2.745-1.013m-2.07 5.518-.405-.169zM82.521 61.02c.195-.23 1.644-1.745 1.681-4.463 0-.345-.028-.708-.086-1.076-.425-2.566-1.583-4.362-1.796-4.706a2.5 2.5 0 0 0-.841-.845c-.046-.027-.095-.042-.142-.065l-.01-.005a2.4 2.4 0 0 0-.579-.208l-.019-.005a2.5 2.5 0 0 0-1.253.049q-.029.01-.056.021a2.5 2.5 0 0 0-.477.216q-.054.03-.106.063a2.5 2.5 0 0 0-.406.329c-.017.017-.036.03-.053.048q-.184.194-.329.432l-.003.008q-.009.018-.018.037c-.009.019-.017.021-.023.032-.071.185-1.249 2.137-1.292 4.868 0 .438.037.898.126 1.373.496 2.842 2.143 4.186 2.784 4.437a2.505 2.505 0 0 0 2.898-.54M87.507 129.58l.003-.003a2.5 2.5 0 0 0 .49-.519 2.6 2.6 0 0 0 .227-.387c.016-.033.04-.06.055-.094l.04-.104.003-.005.006-.011.004-.015c.245-.62 1.287-3.313 1.306-6.593 0-1.073-.118-2.222-.464-3.38-1.281-4.493-3.918-5.944-4.603-6.117a2.51 2.51 0 0 0-2.793.864c-.155.232-1.819 2.412-1.845 5.915 0 .821.098 1.705.339 2.623 1.028 3.843 3.129 6.612 3.657 7.287q.047.064.099.126l.024.031q.013.011.022.021.193.227.436.402l.023.019c.182.129.373.243.584.32.386.14.8.169 1.203.112h.021l.018-.005c.23-.036.458-.092.67-.19.17-.077.327-.182.475-.297M66.555 55.083l-.013-.004a2.5 2.5 0 0 0-1.075-.255 2.5 2.5 0 0 0-.789.141 2.5 2.5 0 0 0-.979.591c-.028.028-.048.063-.075.092l-.013.016a2.5 2.5 0 0 0-.375.561 2.6 2.6 0 0 0-.177.47c-.008.032-.021.063-.028.096a2.5 2.5 0 0 0-.063.534v.011q.002.018.004.035c.002.017-.004.022-.004.034.075.219-.012 5.51 3.382 9.566 2.672 3.112 5.307 3.699 6.383 3.665q.22 0 .343-.018a2.51 2.51 0 0 0 2.182-1.943c.029-.135.164-.786.164-1.779.003-1.595-.371-4.203-2.337-6.612-2.843-3.45-6.366-5.106-6.53-5.201M51.169 96.868q.194.155.419.271.057.031.116.059.234.106.495.162c.022.005.042.018.064.021l.032.006.009.003.011.001c.22.04 1.071.181 2.258.181 1.347-.012 3.144-.155 4.935-1.129 2.938-1.56 3.716-3.794 3.739-4.496a2.5 2.5 0 0 0-1.434-2.542c-.208-.09-1.308-.591-2.988-.599a7.65 7.65 0 0 0-3.495.84 14.7 14.7 0 0 0-4.394 3.53c-.035.037-.065.079-.1.118l-.078.095q-.006.01-.012.02a2.5 2.5 0 0 0-.489 1.089 2.5 2.5 0 0 0-.012.694q.033.312.141.6l.004.017.005.009c.148.387.391.729.705.999zM67.663 104.486a2.5 2.5 0 0 0-1.97-2.156c-.132-.026-.73-.145-1.644-.145a10.38 10.38 0 0 0-6.716 2.433c-2.992 2.544-4.592 5.594-4.999 6.404-.031.054-.056.109-.083.165l-.02.038-.007.023a2.47 2.47 0 0 0-.227 1.246 2.493 2.493 0 0 0 2.503 2.273c.033 0 .065.01.099.009l.048-.007c.019-.001.037.003.056.001h.009c.028-.003.056-.013.084-.016.995-.081 5.679-.359 9.315-3.496 3.017-2.672 3.602-5.269 3.572-6.379a3 3 0 0 0-.02-.393M149.616 96.469c-.553 0-1.002.449-1.002.999 0 4.721-.538 9.313-1.555 13.72a1 1 0 1 0 1.949.449 63 63 0 0 0 1.606-14.169 1 1 0 0 0-.998-.999M145.672 119.251a1 1 0 0 0-1.298.562c-8.884 22.438-30.74 38.303-56.298 38.303a.997.997 0 1 0 0 1.997c26.401 0 48.982-16.386 58.157-39.563a1 1 0 0 0-.561-1.299"/></g></svg>