<svg xmlns="http://www.w3.org/2000/svg" xml:space="preserve" width="135.302" height="230.296"><g fill="#231F20"><path d="M132.565 122.798c-4.718-17.439-11.284-44.854-17.871-68.659-3.3-11.912-6.596-22.921-9.728-31.471-3.472-8.659-5.282-14.371-10.375-18.004C89.375 1.558 84.383-.003 79.643 0 65.254.346 58.017 12.917 52.729 23.301 45.948 37.197 5.461 96.488.85 139.284c-.547 5.245-.85 10.58-.85 15.911.018 18.431 3.562 36.94 13.732 51.298C23.871 220.901 41 230.396 65.397 230.295q.721 0 1.454-.009c48.712-1.008 68.604-48.681 68.449-85.181-.002-7.982-.915-15.568-2.735-22.307m-65.857 97.49q-.658.009-1.311.009c-43.098-.294-54.803-30.371-55.399-65.102 0-4.951.282-9.946.798-14.874 3.854-38.504 43.214-97.533 50.88-112.553 5.061-10.34 11.098-18.116 17.967-17.771 2.519 0 5.723.817 9.836 3.262.015-.012.023-.017.409.53 3.714 4.638 10.441 25.169 16.392 47.477 6.114 22.501 12.148 47.558 16.634 64.143 1.549 5.717 2.39 12.484 2.387 19.696-.155 33.988-18.005 74.889-58.593 75.183"/><path d="M68.521 93.69c-10.66.112-31.652 11.478-37.283 38.639-.853 4.215-1.445 8.893-1.448 13.675.003 8.455 1.859 17.351 7.765 24.239 5.906 6.897 15.724 11.34 30.437 11.313h.547c28.25-.124 37.45-22.846 37.358-40.688-.006-6.371-1.063-12.267-2.824-16.804-6.841-16.861-23.495-30.045-34.552-30.374m-.017 82.867h-.513c-27.313-.309-32.829-14.996-33.2-30.553 0-4.364.549-8.731 1.347-12.685 4.88-24.807 24.761-34.746 32.384-34.632 7.229-.328 24.285 12.151 29.893 27.196 1.483 3.783 2.488 9.187 2.482 14.984-.231 16.66-7.465 35.427-32.393 35.69"/><path d="M93.109 146.09a1 1 0 0 0-1.184.771c-2.499 11.887-13.096 20.624-25.518 20.621q-.756 0-1.522-.043a1 1 0 0 0-.113 1.997q.822.045 1.635.047c13.372-.003 24.777-9.396 27.476-22.21a1 1 0 0 0-.774-1.183M89.839 127.948a1 1 0 0 0-.409 1.353 25.76 25.76 0 0 1 3.037 11.262.997.997 0 0 0 1.033.965c.553-.021.984-.483.965-1.034a27.7 27.7 0 0 0-3.271-12.134 1.003 1.003 0 0 0-1.355-.412"/></g></svg>