<svg xmlns="http://www.w3.org/2000/svg" xml:space="preserve" width="143.951" height="156.286"><g fill="#231F20"><path d="M143.951 68.123c.006-4.255-.89-8.97-3.167-13.763-7.548-14.965-3.825-23.408-14.639-31.949a875 875 0 0 0-10.033-6.957c-2.231-1.524-7.032-5.693-8.655-6.582-3.146-1.793-7.978-3.345-16.625-4.341a27 27 0 0 0-3.018-.17c-13.312.298-24.102 8.868-29.525 14.024C55.909 10.652 49.67.131 33.268 0a2.5 2.5 0 1 0 0 5c12.028-.119 17.285 6.815 19.607 12.847-2.6-.434-5.904-.688-10.269-.698-2.775 0-5.974.109-9.679.363C8.746 19.085 5.412 39.035 5.254 44.274 3.685 47.308.053 55.261 0 65.101c-.003 4.975.999 10.477 3.869 15.775 2.902 5.369 4.644 8.481 5.723 10.324l.211.356a36.2 36.2 0 0 0-.835 7.732c-.006 5.041 1.076 11.523 5.066 17.868 7.384 11.032 21.372 15.07 27.918 16.528 1.676 6.109 7.183 17.569 24.128 21.671 2.6.636 5.118.93 7.52.93 14-.264 22.595-9.254 26.526-14.57a29.3 29.3 0 0 0 9.139 1.55c8.152.23 18.775-4.646 24.597-18.793 4.588-10.675 6.048-19.253 6.048-25.771.007-5.243-.947-9.11-1.867-11.614 2.33-3.492 5.842-10.154 5.908-18.964M33.607 27.486c3.509-.239 6.485-.337 8.999-.337 7.104-.017 10.493.847 11.547 1.302l.073-.013a5 5 0 0 0 2.782 1.9 5.01 5.01 0 0 0 5.035-1.563c.003-.012 3.149-3.636 8.144-7.33 4.989-3.742 11.622-7.145 17.627-7.084q.95 0 1.886.104c4.378.488 7.455 1.155 9.533 1.777 1.648.494 4.504 2.905 5.224 3.393l.009.006.017.012c.015.007 5.213 3.492 11.43 7.807 1.422 5.039 1.571 13.391 1.358 20.022a116 116 0 0 1-.088 4.532c-1.471-1.549-3.443-3.565-6.165-6.3-7.635-7.393-22.739-12.808-22.878-12.908a2.52 2.52 0 0 0-2.121.181 2.51 2.51 0 0 0-1.212 1.751c-.009.063-.832 4.948-1.039 10.672a74 74 0 0 0-.044 2.501c-.007 10.678 2.514 17.769 4.448 21.636-.572.037-1.188.064-1.865.064-3.446.003-7.88-.665-11.654-3.192-7.366-4.718-17.105-24.035-17.146-24.026a2.494 2.494 0 0 0-2.77-1.336 2.496 2.496 0 0 0-1.969 2.364c.011.017-.279 8.273-3.783 16.055-2.311 5.537-12.814 13.44-17.178 16.574-1.503-2.296-4.033-7.012-6.12-15.17-.742-2.91-1.045-5.429-1.045-7.611.034-6.865 2.858-10.521 5.354-12.966l.006-.006c.207-.331.763-.429.933-2.05-.409-2.603-2.654-2.603-2.734-2.605-2.077.137-7.507 2.104-12.014 3.846 1.402-4.888 5.336-11.124 17.42-12.002M26.532 36.7l-.001-.002.006-.003zm104.631 42.371c-1.41 2.744-2.694 4.07-2.646 4.12a4.994 4.994 0 0 0-.4 6.1s.217.228.721 1.762c.5 1.537 1.07 4.045 1.07 7.649-.003 5.023-1.108 12.212-5.236 21.824-5.078 11.215-10.514 12.508-15.407 12.738-4.679.049-8.418-2.251-8.51-2.104a4.98 4.98 0 0 0-3.854-.472 4.97 4.97 0 0 0-3.029 2.427c.004.011-1.764 3.267-5.343 6.652-3.618 3.423-8.587 6.523-14.929 6.518-1.592 0-3.297-.192-5.145-.642-8.87-2.226-12.762-6.42-14.95-10.033a17.8 17.8 0 0 1-1.942-4.724c-.297-1.203-.254-1.641-.303-1.638a4.994 4.994 0 0 0-4.221-4.689c-.011.003-4.669-.731-10.242-2.824-5.611-2.053-11.688-5.591-14.296-9.897-2.772-4.413-3.526-8.876-3.532-12.549-.006-2.74.437-4.824.738-6.005.031-.066.078-.137.1-.201.569-1.21.518-1.846.544-2.283-.216-2.307-.4-1.745-.433-2.131a5 5 0 0 0-1.328-1.901c-.844-1.409-2.661-4.599-5.926-10.647-1.946-3.609-2.66-7.35-2.663-11.02-.066-9.082 4.704-16.953 4.565-17.054l.694-2.793v-.039a401 401 0 0 1 4.056-1.556 91 91 0 0 1 2.761-1.033c-1.424 2.782-2.453 6.29-2.435 10.643 0 2.644.365 5.582 1.203 8.85 3.382 13.251 8.322 18.799 8.576 19.069a2.496 2.496 0 0 0 3.215.402c.13-.213 16.387-10.443 20.912-20.067 1.578-3.543 2.56-7.079 3.177-10.072 3.58 6.249 9.306 15.104 15.152 19.129 4.951 3.29 10.381 4.027 14.429 4.033 3.788-.003 6.428-.656 6.563-.688a2.49 2.49 0 0 0 1.771-1.644 2.5 2.5 0 0 0-.446-2.375c-.003-.003-1.218-1.425-2.62-5.006-1.402-3.587-2.85-9.16-2.85-16.988q-.001-1.13.04-2.323c.094-2.64.333-5.107.551-6.936 4.662 1.964 13.741 6.176 18.199 10.63 4.87 4.781 7.323 7.487 8.504 8.921.587.714.857 1.111.936 1.241l.006-.004A2.49 2.49 0 0 0 119.306 61a2.496 2.496 0 0 0 2.447-2.24c.006-.058.519-4.957.519-11.276-.148-4.733.17-10.562-.415-15.826 3.467 3.387 2.632 10.776 9.892 26.981 1.626 3.452 2.199 6.593 2.202 9.485.008 4.353-1.365 8.195-2.788 10.947"/><path d="M120.235 94.83c.087.544.596.918 1.144.835.544-.087.918-.599.834-1.144a33 33 0 0 0-1.082-4.681 1 1 0 1 0-1.911.588 31 31 0 0 1 1.015 4.402M121.6 100.962a.994.994 0 0 0-1.067.927c-.665 9.345-5.473 18.295-13.858 23.92a1 1 0 1 0 1.115 1.661c8.912-5.982 14.034-15.508 14.736-25.439a1 1 0 0 0-.926-1.069"/></g></svg>