<svg xmlns="http://www.w3.org/2000/svg" xml:space="preserve" width="123.445" height="270.001"><g fill="#231F20"><path d="M120.112 166.286c-1.708-11.853-2.338-22.201-2.338-31.284-.021-26.323 5.269-41.575 5.39-53.744v-.299c-.096-7.905-1.915-18.882-6.734-28.566-3.126-6.393-8.05-12.466-14.838-15.784L118.488 7.51a5.004 5.004 0 0 0-1.813-6.835 5 5 0 0 0-6.834 1.813L91.84 33.49c-.106.184-.177.377-.258.568-.471-.023-.936-.06-1.418-.059-5.697-.188-34.75.771-51.479 34.775-9.365 18.939-27.383 67.796-32.43 93.262C4.391 171.617.009 189.99 0 208.93c.021 14.445 2.502 29.524 11.357 41.429C20.215 262.316 35.51 270.063 58.158 270h.129c25.986.09 43.053-8.59 52.837-21.855 9.774-13.208 12.299-29.899 12.321-45.605-.003-13.528-1.933-26.513-3.333-36.254M90.164 44.001c7.972.026 13.254 5.003 17.327 12.877 2.668 5.269 4.317 11.591 5.108 17.112-2.683-3.967-5.423-7.278-5.459-7.521a2.506 2.506 0 0 0-2.914-.789 2.505 2.505 0 0 0-1.549 2.591c0 .004.052.458.052 1.399.006 1.952-.273 5.64-1.865 9.345-.596 1.399-1.793 3.796-2.857 5.87-2.141-3.497-5.482-8.781-8.824-13.36-5.007-6.777-7.537-18.073-7.58-18.067a2.501 2.501 0 0 0-4.558-.786c.015.124-6.224 9.191-10.461 9.895-1.993.478-3.376.727-4.315.858l-1.356-8.132c12.586-11.32 25.711-11.156 29.251-11.292M58.287 259.999h-.118c-40.387-.572-47.413-24.104-48.168-51.069-.009-17.472 4.12-35.099 6.069-44.967 4.586-23.652 22.797-73.179 31.571-90.736 2.755-5.48 5.79-9.924 8.936-13.533l1.12 6.716a2.5 2.5 0 0 0 1.488 1.892c.486.195.915.25 1.606.259 1.151-.006 3.083-.213 6.949-1.128 4.344-1.202 7.986-4.815 10.396-7.784 1.313 4.161 3.583 10.099 7.006 14.828C90.47 81.763 95.987 91.244 96 91.257a2.495 2.495 0 0 0 4.367-.083c.018-.038 3.686-6.915 5.093-10.188a28 28 0 0 0 1.762-5.925q.442.633.89 1.293c2.296 3.174 4.478 7.444 4.594 8.187-.05.209-.092.244-.126.861.009.136-.012.294.106.729.001.063.044.193.122.349-1.196 9.894-5.02 25.63-5.036 48.524 0 9.547.665 20.388 2.441 32.712 1.407 9.739 3.232 22.238 3.23 34.825-.79 29.644-8.013 56.886-55.156 57.458"/><path d="M104.475 216.572a1 1 0 0 0-1.246.671 46 46 0 0 1-2.353 6.175 1 1 0 0 0 1.813.847 48 48 0 0 0 2.453-6.445 1 1 0 0 0-.667-1.248M99.615 227.964a1.003 1.003 0 0 0-1.376.319c-8.124 13.041-22.584 21.718-39.077 21.718-.553 0-.999.446-.999.999s.446.999.999.999c17.207 0 32.303-9.054 40.772-22.656a1 1 0 0 0-.319-1.379"/></g></svg>