<svg xmlns="http://www.w3.org/2000/svg" xml:space="preserve" width="105.029" height="272.41"><g fill="#231F20"><path d="M105.018 144.409c.17-4.258-1.675-7.913-3.658-9.477-.21-.178-.387-.322-.543-.447-2.403-33.352-4.908-55.623-8.336-71.551.669-1.192 1.235-2.791 1.083-4.166-.006-1.419-.248-2.855-.709-4.629-.434-2.471-2.235-5.154-4.521-6.24-3.74-10.528-8.731-17.529-14.934-23.173a18.1 18.1 0 0 0-5.544-3.479c1.574-.693 3.082-1.521 4.451-2.492 2.17.891 4.865 1.42 8.114 1.424 1.491 0 3.108-.093 4.868-.285a2.5 2.5 0 0 0-.542-4.972 40 40 0 0 1-4.326.256c-1.607-.052-2.941-.184-4.059-.377 1.41-1.965 2.324-4.273 2.483-6.973a12 12 0 0 0-.411-3.063C77.877 2.226 75.928-.037 73.343 0c-4.811.507-7.404 5.106-7.672 9.986.005 2.046.715 4.005 2.129 5.65-.126.071-.249.144-.379.214-2.556 1.391-5.608 2.372-8.403 2.89v-7.33a4.997 4.997 0 0 0-5-5.001 4.997 4.997 0 0 0-4.998 5.001v9.257c-1.102.188-2.133.368-3.06.508-15.344 2.4-28.203 14.963-35.825 35.829-2.381.99-4.233 3.448-4.821 5.714-.5 1.417-.823 2.689-.834 4.143-.187 1.518.583 3.143 1.517 4.349-2.79 12.17-3.454 22.119-3.831 34.65-1.037 1.255-2.304 4.066-2.153 7.076q0 .306.008.634v-.006c.038 3.575 1.204 6.422 2.226 7.939 1.045 1.649.723 1.07.792 1.321 1.359 16.228 2.394 45.827 4.014 63.457-.194.28-.491.733-.867 1.437-.729 1.394-1.235 3.368-1.212 5.545q0 .74.063 1.543c.132 2.803 1.687 5.147 2.92 6.364-.472 1.146-1.034 2.886-1.026 4.995 0 .619.046 1.264.136 1.926.304 3.202 1.949 6.045 3.563 7.236 2.5 15.167 5.951 28.689 11.614 39.023 5.628 10.498 14.669 18.141 26.715 18.059h.075c20.346.135 41.958-15.453 49.887-55.267l.028.02c.415-1.017 2.942-2.447 4.011-6.964a10 10 0 0 0 .118-1.515c-.328-4.632-1.979-6.96-1.685-7.412v-.046l.003-.003c.887-8.093 1.361-17.003 1.361-26.805q.001-10.08-.695-21.453c.319-.372.79-.959 1.323-1.83.997-1.664 1.659-4.025 1.633-6.725M71.913 6.285c.521-.791 1.063-1.085 1.304-1.207.103.162.254.463.386.974a6.9 6.9 0 0 1 .245 1.776c.029 1.707-.758 3.368-2.186 4.885-.742-.852-.922-1.817-.99-2.726-.012-1.249.515-2.703 1.241-3.702M6.625 68.573l-.002.009h-.001zm87.96 77.742c-.074.235-2.521 2.196-2.573 5.881q0 .273.017.536v-.006c.493 7.718.729 14.94.729 21.691 0 9.479-.46 18.027-1.304 25.713v-.006q-.064.593-.063 1.146c.246 3.904 1.488 6.374 1.693 7.148-.38.97-2.677 2.228-3.922 6.522-7.982 37.444-25.146 47.247-40.153 47.466h-.049c-7.663-.084-12.954-4.085-17.957-12.883-4.84-8.731-8.285-21.781-10.672-36.808-.173-1.42-1.045-3.104-1.97-3.968-.579-.571-.99-.851-1.188-.996-.049-.15-.12-.445-.199-1.027a4 4 0 0 1-.043-.562c-.265-1.039.896-.794 1.598-5.956q.001-.45-.055-.918c-.924-4.232-3.296-4.745-3.371-5.147l-.098-.13a9 9 0 0 1-.034-.751c.089-1.287.052-.783.256-1.229.146-.253 1.912-2.357 1.871-5.273a10 10 0 0 0-.04-.855c-1.606-17.037-2.654-47.088-4.057-63.912-.207-3.065-1.94-5.23-2.279-5.795-.363-.696-.562-.69-.706-2.944v-.006q-.003-.16-.002-.312c0-.714.083-.993.092-1.019.046-.032-.133-.041.141-.127.34-.311 1.897-2.289 1.886-4.574.403-13.848 1.022-23.353 4.2-36.244l.003-.009c.101-.414.179-.9.179-1.459.081-1.103-.403-2.269-1.01-3.177 1.453-.693 3.011-2.088 3.111-3.278 6.926-20.644 17.854-30.313 28.877-31.994 3.733-.594 7.772-1.423 11.282-1.411 3.442.021 5.956.699 7.864 2.447 5.524 5.13 9.431 10.563 12.938 21.11.244 1.515 2.272 3.297 3.68 3.779.118.477.201.88.245 1.167-.667.733-1.399 2.419-1.328 3.753 0 .564.072 1.057.17 1.491 3.46 15.237 6.092 37.939 8.587 73.023.495 4.525 3.933 5.835 3.795 5.999l.061.084c.055.121.235.653.235 1.911-.111 1.863-.189 1.445-.437 1.909"/><path d="M40.819 50.143a2.5 2.5 0 0 0-.066-3.535 2.5 2.5 0 0 0-3.535.066c-2.861 3.031-7.361 8.04-7.695 14.636-.055 1.379 1.02 2.542 2.398 2.597s2.542-1.022 2.597-2.4c.091-4.173 3.589-8.609 6.301-11.364M71.466 55.892c-1.342-5.764-5.162-12.736-7.747-15.318a2.5 2.5 0 0 0-3.532.133 2.5 2.5 0 0 0 .133 3.532c1.131.869 5.489 8.48 6.252 12.687a2.502 2.502 0 0 0 4.894-1.034M37.675 107.82a2.5 2.5 0 0 0 1.756-3.069c-.467-1.713-.659-3.566-.659-5.435-.003-4.181.97-8.392 1.678-11.325a2.5 2.5 0 0 0-4.862-1.166c-.712 2.979-1.814 7.568-1.817 12.491 0 2.208.225 4.496.835 6.748a2.5 2.5 0 0 0 3.069 1.756M26.911 150.072c-.002-3.961.349-8.294.6-11.467a2.5 2.5 0 0 0-4.983-.394c-.251 3.173-.616 7.62-.616 11.861.003 2.821.152 5.538.668 7.879a2.5 2.5 0 1 0 4.88-1.088c-.387-1.71-.554-4.175-.549-6.791M59.551 146.951a2.5 2.5 0 0 0-1.986 2.925c.229 1.157.466 4.468.457 7.771.003 2.697-.146 5.504-.466 7.338a2.5 2.5 0 1 0 4.925.849c.403-2.349.539-5.306.542-8.187-.009-3.564-.202-6.84-.547-8.706a2.505 2.505 0 0 0-2.925-1.99M77.483 98.832c.138-.806.188-1.646.188-2.55-.069-6.077-2.091-14.958-3.383-17.924a2.5 2.5 0 0 0-4.537 2.101c.748 1.442 2.988 11.046 2.919 15.822 0 .708-.043 1.304-.115 1.701a2.501 2.501 0 0 0 4.928.85M46.518 191.379a2.495 2.495 0 0 0-2.527-2.47 2.5 2.5 0 0 0-2.473 2.527c.098 5.052 1.024 13.188 3.238 18.032a2.5 2.5 0 0 0 4.526-2.124c-1.626-3.327-2.755-11.592-2.764-15.965M39.425 232.73a2.5 2.5 0 0 0-3.083-1.73 2.504 2.504 0 0 0-1.73 3.084c1.468 4.997 1.5 9.738 5.613 14.065a2.5 2.5 0 0 0 3.588-3.483c-2.646-2.634-2.811-6.101-4.388-11.936M81.859 138.542c0 2.842-.104 5.487-.182 7.79a1 1 0 0 0 .964 1.037 1.003 1.003 0 0 0 1.034-.968c.077-2.297.185-4.969.185-7.859 0-4.746-.285-10.087-1.463-15.378a1 1 0 1 0-1.952.434c1.132 5.078 1.417 10.277 1.414 14.944M84.098 157.283a1 1 0 0 0-.999-.999 1 1 0 0 0-1.002.999v.807c0 4.062.023 8.083.023 12.076.003 20.437-.647 40.153-8.44 60.947a1 1 0 0 0 1.874.699c7.928-21.159 8.567-41.179 8.567-61.646 0-4.002-.023-8.023-.023-12.076z"/></g></svg>