<svg xmlns="http://www.w3.org/2000/svg" xml:space="preserve" width="219.366" height="211.011"><g fill="#231F20"><path d="M164.745 11.568c-5.516-1.822-10.835-2.507-15.799-2.507-12.289.092-22.761 4.041-29.458 5.317 2.053-3.759 5.884-8.68 7.458-10.143a2.501 2.501 0 0 0-3.598-3.472c-2.147 2.429-7.354 8.184-9.395 13.78-3.864-1.638-12.552-9.064-29.051-9.197-4.448 0-9.486.523-15.258 1.762C22.038 17.073-.339 55.366.004 104.83c.011 52.092 36.831 95.572 85.914 105.879h.003c.999.21 1.989.302 2.951.302 9.14-.559 15.099-6.267 18.988-5.76 6.037-.236 13.965 4.459 23.459 4.715 1.702 0 3.466-.192 5.24-.671 45.35-11.933 73.625-40.74 80.828-89.461 1.336-8.72 1.978-16.913 1.978-24.594.218-45.858-23.526-73.633-54.62-83.672m42.756 106.751c-7.254 45.52-30.958 69.561-73.542 81.32-.817.219-1.678.325-2.64.325-5.519.257-13.648-4.482-23.459-4.715-9.382.506-15.687 6.318-18.988 5.76-.322 0-.613-.028-.904-.089h.003c-44.518-9.348-77.978-48.824-77.966-96.091.342-46.968 19.106-78.554 61.738-87.941 5.173-1.111 9.5-1.543 13.159-1.543 16.369-.158 18.965 8.248 30.736 9.425 10.226-.256 20.84-5.817 33.308-5.708 4.057.003 8.248.547 12.664 2.003 27.369 9.253 47.534 31.69 47.753 74.175 0 7.125-.592 14.815-1.862 23.079"/><path d="M190.715 120.004a1 1 0 0 0-1.157.814c-4.313 24.588-20.494 45.062-42.367 55.201a1 1 0 0 0-.486 1.327 1 1 0 0 0 1.327.486c22.46-10.412 39.065-31.422 43.495-56.669a1.003 1.003 0 0 0-.812-1.159M188.625 89.955a76 76 0 0 1 2.075 17.682 1 1 0 1 0 2.001 0c0-6.25-.737-12.327-2.13-18.147a1 1 0 0 0-1.206-.74 1 1 0 0 0-.74 1.205"/></g></svg>