<svg xmlns="http://www.w3.org/2000/svg" xml:space="preserve" width="217" height="217"><g fill="#231F20"><path d="m167.124 17.187-.02-.015q-.033-.02-.067-.042a107 107 0 0 0-2.799-1.732q-.407-.243-.815-.482a109 109 0 0 0-2.348-1.342c-.21-.116-.418-.236-.628-.351a108 108 0 0 0-2.934-1.543q-.359-.18-.721-.358-1.228-.611-2.474-1.193-.362-.17-.725-.338a109 109 0 0 0-3.099-1.362c-.163-.069-.329-.133-.493-.202q-1.363-.564-2.746-1.092-.384-.148-.771-.293a110 110 0 0 0-3.26-1.165l-.046-.015a110 110 0 0 0-4.043-1.269 108 108 0 0 0-3.057-.852q-.155-.042-.311-.084a108 108 0 0 0-3.374-.812q-.415-.092-.829-.181-1.406-.305-2.824-.572c-.235-.044-.469-.092-.705-.135q-1.691-.307-3.397-.562c-.272-.041-.546-.076-.819-.114q-1.38-.195-2.77-.355-.466-.055-.934-.106a109 109 0 0 0-3.445-.315c-.217-.016-.434-.026-.65-.041a110 110 0 0 0-3.955-.199A108 108 0 0 0 108.501 0C48.576.002.006 48.574 0 108.499c0 1.441.037 2.873.093 4.301l.027.72q.095 2.056.265 4.093c.01.108.013.218.021.326.003.027.012.052.015.079 4.826 55.466 51.363 98.981 108.08 98.983C168.426 216.998 216.997 168.424 217 108.5c-.002-38.33-19.874-72.011-49.876-91.313M151.47 27.216c8.977 11.734 13.016 25.273 13.021 39.071.028 28.037-16.899 57.055-43.217 72.151a83.3 83.3 0 0 1-41.567 11.083c-27.986-.008-55.093-14.008-69.675-39.548-.007-.493-.031-.98-.031-1.474.098-54.397 44.103-98.4 98.5-98.498 1.002 0 1.998.025 2.992.055a97 97 0 0 1 1.622.064q.56.027 1.12.061a98.5 98.5 0 0 1 22.548 3.987c5.452 3.143 10.376 7.441 14.687 13.048m-42.969 179.783c-50.433-.091-91.926-37.923-97.785-86.787 16.271 22.263 42.317 34.314 68.991 34.309a88.34 88.34 0 0 0 44.058-11.751c27.866-16.041 45.698-46.455 45.727-76.484.006-14.771-4.37-29.467-14.052-42.111a58 58 0 0 0-3.335-3.962c32.492 16.096 54.826 49.552 54.897 88.285-.101 54.398-44.104 98.403-98.501 98.501"/><path d="M104.528 18.01c-14.466.011-30.501 5.435-46.777 14.826C30.852 48.479 19.492 77.894 19.42 94.79c.015 3.8.553 7.033 1.914 9.581 12.138 22.374 35.378 34.611 59.231 34.605a69.66 69.66 0 0 0 34.865-9.341c22.049-12.759 36.138-36.9 36.169-60.794.006-11.751-3.463-23.468-11.141-33.535-9.016-11.896-21.751-17.337-35.93-17.296M146.6 68.84c.028 21.913-13.171 44.658-33.668 56.465a64.66 64.66 0 0 1-32.366 8.67c-22.175-.009-43.64-11.339-54.835-31.989-.76-1.359-1.324-3.918-1.31-7.197-.072-14.909 10.807-43.29 35.829-57.624 15.762-9.109 31.085-14.167 44.278-14.155 12.964.037 23.811 4.692 31.955 15.323 6.972 9.161 10.111 19.723 10.117 30.507M187.464 139.034a1.003 1.003 0 0 0-1.308.541c-9.502 22.936-28.148 41.771-52.212 51.387a1.003 1.003 0 0 0-.559 1.301.997.997 0 0 0 1.301.555c24.57-9.816 43.608-29.047 53.315-52.477a.997.997 0 0 0-.537-1.307M194.113 105.844a1 1 0 0 0-1.021.976 90.7 90.7 0 0 1-2.202 17.857 1 1 0 0 0 .754 1.197 1 1 0 0 0 1.194-.757 92.4 92.4 0 0 0 2.252-18.251 1 1 0 0 0-.977-1.022"/></g></svg>