<svg xmlns="http://www.w3.org/2000/svg" xml:space="preserve" width="239.121" height="211.139"><g fill="#231F20"><path d="M213.082 19.504c-1.18-1.459-3.297-3.063-6.014-3.057-6.08.763-7.246 4.442-9.848 7.833-1.24 1.941-2.588 4.221-4.098 6.735C173.98 11.865 147.473 0 118.229 0 88.176 0 61.016 12.532 41.768 32.622c-4.035-4.349-8.738-7.2-14.217-7.697-4.926-.075-9.379 3.215-11.916 7.891C5.686 50.217 0 70.383 0 91.836c.004 58.263 41.85 106.747 97.174 117.206.365.074.732.14 1.098.209l.264.047a106.3 106.3 0 0 0 19.693 1.841c.182 0 .361-.009.543-.01.264.001.525.01.791.01 66.021 0 119.553-53.401 119.559-119.303.066-28.931-8.661-51.778-26.04-72.332m-25.736 19.892c.109.113.234.198.352.299-6.834 10.342-16.527 22.417-31.717 31.955-11.117 6.976-26.291 18.144-39.307 28.065a41 41 0 0 0 .072-2.314c-.051-13.62-6.088-30.083-8.023-47.491a32 32 0 0 1-.201-3.562c-.367-19.22 19.256-30.847 29.695-34.263 19.099 4.043 36.082 13.759 49.129 27.311m-69.117-29.395c3.609 0 7.17.206 10.674.593-11.57 5.815-25.086 17.35-25.381 35.754 0 1.345.074 2.718.236 4.123 2.072 18.093 8.043 34.767 7.99 46.93-.002 2.424-.236 4.635-.734 6.654a1531 1531 0 0 0-17.943 14.046 165 165 0 0 0-6.199-7.453C66.027 87.256 62.328 82.472 55.996 60.36c-2.201-6.989-4.922-13.765-8.258-19.495 17.522-18.979 42.59-30.861 70.491-30.864M10 91.836c.004-19.683 5.205-38.112 14.316-54.058 1.734-2.799 2.514-2.781 3.234-2.856 1.227-.256 5.414 2.11 9.18 7.482 3.82 5.222 7.422 12.724 9.635 20.655 6.336 23.059 12.361 31.367 33.064 54.268 18.654 20.475 33.021 51.159 32.736 64.2 0 .964-.072 1.799-.193 2.476-1.246 7.053-2.117 11.182-2.662 13.479-.535 2.289-.664 2.352-.609 2.378l-.01.02-.002.009c-.09.225-.139.454-.193.682a110 110 0 0 1-10.557-1.595c-3.102-.667-10.016-2.623-10.453-2.643C42.654 182.614 10.09 141.058 10 91.836m124.727 107.89a97 97 0 0 1-15.916 1.405l-.098-.001c.592-2.308 1.568-6.723 3.109-15.384.238-1.364.342-2.769.342-4.217-.223-14.289-9.537-35.884-23.139-55.387 10.031-7.983 43.102-34.021 62.264-46.019 17.705-11.092 28.639-25.391 35.896-36.664 3.625-5.631 6.361-10.542 8.443-13.77.467-.733.904-1.371 1.291-1.902 15.008 18.602 22.135 37.914 22.199 64.05-.086 48.09-31.172 88.866-74.41 103.51-1.784.603-16.044 3.699-19.981 4.379"/><path d="M199.344 141.89a1 1 0 0 0-1.379.314c-13.936 22.195-36.701 38.538-63.518 44.348a.997.997 0 0 0-.766 1.189c.115.538.648.881 1.189.766 27.35-5.927 50.566-22.587 64.787-45.237a1 1 0 0 0-.313-1.38M212.105 108.562a.996.996 0 0 0-1.168.792 95.3 95.3 0 0 1-5.424 18.185 1.001 1.001 0 0 0 1.852.76 97.5 97.5 0 0 0 5.535-18.568 1 1 0 0 0-.795-1.169"/></g></svg>