<svg xmlns="http://www.w3.org/2000/svg" xml:space="preserve" width="269.999" height="140.499"><g fill="#231F20"><path d="M267.497 0H2.499A2.5 2.5 0 0 0 0 2.498v3c.003 74.561 60.44 134.998 135.001 135.001 74.561-.003 134.995-60.44 134.998-135.001v-3A2.5 2.5 0 0 0 267.497 0M135.001 130.498c-69.033-.124-124.876-55.967-125-125 0-.171.03-.498.03-.498h249.938s.032.327.032.498c-.127 69.033-55.967 124.876-125 125"/><path d="M240.391 26.847a.996.996 0 0 0-1.166.797 102.3 102.3 0 0 1-5.591 19.182 1 1 0 0 0 1.855.746 104 104 0 0 0 5.703-19.559 1 1 0 0 0-.801-1.166M227.227 61.966a1 1 0 0 0-1.374.331c-14.368 23.41-37.83 40.637-65.463 46.763a1 1 0 0 0 .432 1.952c28.178-6.244 52.092-23.805 66.737-47.67a1.004 1.004 0 0 0-.332-1.376M191.8 42.77c4.344-.005 6.583-2.841 6.589-5.907-.093-5.464-4.576-12.209-5.254-13.278a1.5 1.5 0 0 0-.498-.572 1.5 1.5 0 0 0-1.125-.222 1.5 1.5 0 0 0-.394.146l-.045.024q-.119.068-.224.155-.037.029-.073.06a1.5 1.5 0 0 0-.171.196c-.015.021-.036.036-.05.057-.022.138-5.245 7.537-5.346 13.433.01 3.067 2.247 5.902 6.591 5.908m.016-15.604c1.455 2.544 3.641 6.883 3.573 9.697-.221 1.969-.299 2.683-3.589 2.908-3.291-.225-3.366-.939-3.59-2.908-.068-2.816 2.152-7.154 3.606-9.697M169.489 77.712c-.093-5.451-4.554-12.175-5.246-13.266a1.47 1.47 0 0 0-.504-.583 1.5 1.5 0 0 0-1.538-.069l-.009.005q-.147.079-.275.191l-.025.021a1.5 1.5 0 0 0-.227.26l-.009.01c-.023.138-5.242 7.537-5.346 13.432.009 3.066 2.246 5.902 6.59 5.907 4.344-.006 6.583-2.842 6.589-5.908m-10.176 0c-.07-2.815 2.15-7.151 3.604-9.695 1.455 2.544 3.64 6.881 3.572 9.695-.222 1.969-.299 2.683-3.59 2.908-3.29-.224-3.365-.938-3.586-2.908M77.037 23.013a1.5 1.5 0 0 0-1.53-.071l-.022.012a1.5 1.5 0 0 0-.252.175q-.024.02-.049.04a1.4 1.4 0 0 0-.18.207c-.015.02-.035.035-.048.055-.023.138-5.242 7.537-5.343 13.433.006 3.066 2.243 5.901 6.586 5.907 4.344-.005 6.584-2.841 6.59-5.907-.093-5.44-4.535-12.146-5.243-13.261a1.5 1.5 0 0 0-.509-.59m-.838 16.758c-3.288-.225-3.365-.939-3.587-2.908-.068-2.815 2.151-7.152 3.605-9.696 1.455 2.545 3.64 6.882 3.572 9.696-.222 1.969-.3 2.682-3.59 2.908M134.866 29.032a1.5 1.5 0 0 0-1.12-.248 1.5 1.5 0 0 0-.436.157l-.024.012a1.5 1.5 0 0 0-.286.2l-.004.003a1.5 1.5 0 0 0-.22.245l-.006.008-.011.02-.003.003c-.023.138-5.246 7.536-5.346 13.429.009 3.066 2.246 5.902 6.589 5.907 4.344-.005 6.584-2.841 6.59-5.907-.093-5.435-4.533-12.136-5.242-13.255a1.5 1.5 0 0 0-.481-.574m-.867 16.738c-3.29-.225-3.365-.938-3.59-2.908-.068-2.816 2.153-7.153 3.607-9.696 1.455 2.544 3.64 6.882 3.572 9.696-.221 1.969-.298 2.683-3.589 2.908M105.937 63.863a1.5 1.5 0 0 0-1.535-.069l-.012.006q-.147.08-.275.192l-.023.019a1.5 1.5 0 0 0-.232.266l-.006.009-.014.026c-.192.371-5.227 7.604-5.329 13.4.008 3.066 2.245 5.902 6.589 5.907 4.344-.005 6.583-2.841 6.589-5.907-.093-5.422-4.508-12.102-5.235-13.246a1.5 1.5 0 0 0-.517-.603m-.838 16.757c-3.291-.225-3.365-.938-3.587-2.908-.07-2.816 2.15-7.153 3.604-9.697 1.455 2.544 3.641 6.883 3.573 9.697-.222 1.97-.299 2.684-3.59 2.908"/></g></svg>